<svg width="189" height="64" viewBox="0 0 189 64" fill="none" xmlns="http://www.w3.org/2000/svg">
<path fill-rule="evenodd" clip-rule="evenodd" d="M48.2593 20.5595L27.2739 33.9655L45.3001 47.7417C40.6763 53.136 33.7229 56.5677 25.9471 56.5677C12.026 56.5677 0.740723 45.5684 0.740723 32C0.740723 18.4317 12.026 7.43237 25.9471 7.43237C35.6298 7.43237 44.0374 12.7537 48.2593 20.5595Z" fill="#FFCC00"/>
<circle cx="24.8857" cy="22.0254" r="5.57193" fill="white"/>
<circle cx="26.0964" cy="22.2683" r="3.39161" fill="black"/>
<path d="M37.869 36.7262C34.8034 33.6605 30.9429 34.3118 29.3533 35.5608L39.9128 43.7358C41.1617 42.4868 41.422 40.2792 37.869 36.7262Z" fill="#FFBDCA"/>
<path d="M71.8984 26.36C72.9651 25.88 74.1917 25.4667 75.5784 25.12C76.9917 24.7733 78.6584 24.6 80.5784 24.6C81.9651 24.6 83.1384 24.7733 84.0984 25.12C85.0851 25.44 85.8717 25.9067 86.4584 26.52C87.0717 27.1333 87.5117 27.8667 87.7784 28.72C88.0451 29.5733 88.1784 30.5333 88.1784 31.6C88.1784 32.96 88.1251 34.12 88.0184 35.08C87.9384 36.04 87.8984 36.8933 87.8984 37.64C87.8984 38.2 87.9251 38.8267 87.9784 39.52C88.0317 39.8933 88.0717 40.2533 88.0984 40.6H90.6984V45H84.0584L83.5384 42.28H83.3384C82.8051 43.1067 82.0451 43.8267 81.0584 44.44C80.0717 45.0267 78.7384 45.32 77.0584 45.32C75.0584 45.32 73.4717 44.7867 72.2984 43.72C71.1251 42.6533 70.5384 41.24 70.5384 39.48C70.5384 38.36 70.7384 37.4 71.1384 36.6C71.5651 35.7733 72.1651 35.1067 72.9384 34.6C73.7384 34.0667 74.6851 33.68 75.7784 33.44C76.8984 33.1733 78.1384 33.04 79.4984 33.04C79.9784 33.04 80.4851 33.0667 81.0184 33.12C81.5517 33.1733 82.2051 33.2267 82.9784 33.28C83.0317 33.0133 83.0584 32.7467 83.0584 32.48V31.72C83.0584 30.7067 82.7651 29.9867 82.1784 29.56C81.5917 29.1067 80.7251 28.88 79.5784 28.88C78.2184 28.88 76.9917 29.0533 75.8984 29.4C74.8051 29.7467 73.8851 30.0933 73.1384 30.44L71.8984 26.36ZM78.7384 41.04C80.0184 41.04 80.9784 40.8133 81.6184 40.36C82.2584 39.88 82.7251 39.3733 83.0184 38.84V36.44C82.7517 36.3867 82.3517 36.3333 81.8184 36.28C81.2851 36.2 80.7117 36.16 80.0984 36.16C79.5917 36.16 79.0851 36.2133 78.5784 36.32C78.0717 36.4 77.6184 36.5467 77.2184 36.76C76.8184 36.9467 76.4984 37.2 76.2584 37.52C76.0184 37.84 75.8984 38.2267 75.8984 38.68C75.8984 39.4267 76.1117 40.0133 76.5384 40.44C76.9917 40.84 77.7251 41.04 78.7384 41.04ZM114.123 43.08C113.029 43.9067 111.749 44.5333 110.283 44.96C108.816 45.36 107.283 45.56 105.683 45.56C103.949 45.56 102.403 45.3067 101.043 44.8C99.7094 44.2933 98.5761 43.5867 97.6428 42.68C96.7361 41.7467 96.0428 40.6267 95.5628 39.32C95.0828 38.0133 94.8428 36.5733 94.8428 35C94.8428 33.32 95.1228 31.8267 95.6828 30.52C96.2428 29.2133 97.0161 28.1067 98.0028 27.2C99.0161 26.2933 100.203 25.6133 101.563 25.16C102.923 24.68 104.403 24.44 106.003 24.44C107.496 24.44 108.896 24.6133 110.203 24.96C111.509 25.3067 112.509 25.64 113.203 25.96V33H108.803V29.32C107.976 29.1333 107.149 29.04 106.323 29.04C105.576 29.04 104.829 29.16 104.083 29.4C103.363 29.6133 102.709 29.9733 102.123 30.48C101.563 30.96 101.096 31.5733 100.723 32.32C100.376 33.0667 100.203 33.96 100.203 35C100.203 35.8533 100.349 36.64 100.643 37.36C100.936 38.08 101.349 38.7067 101.883 39.24C102.416 39.7733 103.069 40.2 103.843 40.52C104.643 40.8133 105.523 40.96 106.483 40.96C108.003 40.96 109.243 40.7467 110.203 40.32C111.189 39.8933 111.923 39.52 112.403 39.2L114.123 43.08ZM119.867 26.36C120.934 25.88 122.16 25.4667 123.547 25.12C124.96 24.7733 126.627 24.6 128.547 24.6C129.934 24.6 131.107 24.7733 132.067 25.12C133.054 25.44 133.84 25.9067 134.427 26.52C135.04 27.1333 135.48 27.8667 135.747 28.72C136.014 29.5733 136.147 30.5333 136.147 31.6C136.147 32.96 136.094 34.12 135.987 35.08C135.907 36.04 135.867 36.8933 135.867 37.64C135.867 38.2 135.894 38.8267 135.947 39.52C136 39.8933 136.04 40.2533 136.067 40.6H138.667V45H132.027L131.507 42.28H131.307C130.774 43.1067 130.014 43.8267 129.027 44.44C128.04 45.0267 126.707 45.32 125.027 45.32C123.027 45.32 121.44 44.7867 120.267 43.72C119.094 42.6533 118.507 41.24 118.507 39.48C118.507 38.36 118.707 37.4 119.107 36.6C119.534 35.7733 120.134 35.1067 120.907 34.6C121.707 34.0667 122.654 33.68 123.747 33.44C124.867 33.1733 126.107 33.04 127.467 33.04C127.947 33.04 128.454 33.0667 128.987 33.12C129.52 33.1733 130.174 33.2267 130.947 33.28C131 33.0133 131.027 32.7467 131.027 32.48V31.72C131.027 30.7067 130.734 29.9867 130.147 29.56C129.56 29.1067 128.694 28.88 127.547 28.88C126.187 28.88 124.96 29.0533 123.867 29.4C122.774 29.7467 121.854 30.0933 121.107 30.44L119.867 26.36ZM126.707 41.04C127.987 41.04 128.947 40.8133 129.587 40.36C130.227 39.88 130.694 39.3733 130.987 38.84V36.44C130.72 36.3867 130.32 36.3333 129.787 36.28C129.254 36.2 128.68 36.16 128.067 36.16C127.56 36.16 127.054 36.2133 126.547 36.32C126.04 36.4 125.587 36.5467 125.187 36.76C124.787 36.9467 124.467 37.2 124.227 37.52C123.987 37.84 123.867 38.2267 123.867 38.68C123.867 39.4267 124.08 40.0133 124.507 40.44C124.96 40.84 125.694 41.04 126.707 41.04ZM162.092 43.08C160.998 43.9067 159.718 44.5333 158.252 44.96C156.785 45.36 155.252 45.56 153.652 45.56C151.918 45.56 150.372 45.3067 149.012 44.8C147.678 44.2933 146.545 43.5867 145.612 42.68C144.705 41.7467 144.012 40.6267 143.532 39.32C143.052 38.0133 142.812 36.5733 142.812 35C142.812 33.32 143.092 31.8267 143.652 30.52C144.212 29.2133 144.985 28.1067 145.972 27.2C146.985 26.2933 148.172 25.6133 149.532 25.16C150.892 24.68 152.372 24.44 153.972 24.44C155.465 24.44 156.865 24.6133 158.172 24.96C159.478 25.3067 160.478 25.64 161.172 25.96V33H156.772V29.32C155.945 29.1333 155.118 29.04 154.292 29.04C153.545 29.04 152.798 29.16 152.052 29.4C151.332 29.6133 150.678 29.9733 150.092 30.48C149.532 30.96 149.065 31.5733 148.692 32.32C148.345 33.0667 148.172 33.96 148.172 35C148.172 35.8533 148.318 36.64 148.612 37.36C148.905 38.08 149.318 38.7067 149.852 39.24C150.385 39.7733 151.038 40.2 151.812 40.52C152.612 40.8133 153.492 40.96 154.452 40.96C155.972 40.96 157.212 40.7467 158.172 40.32C159.158 39.8933 159.892 39.52 160.372 39.2L162.092 43.08ZM167.836 26.36C168.903 25.88 170.129 25.4667 171.516 25.12C172.929 24.7733 174.596 24.6 176.516 24.6C177.903 24.6 179.076 24.7733 180.036 25.12C181.023 25.44 181.809 25.9067 182.396 26.52C183.009 27.1333 183.449 27.8667 183.716 28.72C183.983 29.5733 184.116 30.5333 184.116 31.6C184.116 32.96 184.063 34.12 183.956 35.08C183.876 36.04 183.836 36.8933 183.836 37.64C183.836 38.2 183.863 38.8267 183.916 39.52C183.969 39.8933 184.009 40.2533 184.036 40.6H186.636V45H179.996L179.476 42.28H179.276C178.743 43.1067 177.983 43.8267 176.996 44.44C176.009 45.0267 174.676 45.32 172.996 45.32C170.996 45.32 169.409 44.7867 168.236 43.72C167.063 42.6533 166.476 41.24 166.476 39.48C166.476 38.36 166.676 37.4 167.076 36.6C167.503 35.7733 168.103 35.1067 168.876 34.6C169.676 34.0667 170.623 33.68 171.716 33.44C172.836 33.1733 174.076 33.04 175.436 33.04C175.916 33.04 176.423 33.0667 176.956 33.12C177.489 33.1733 178.143 33.2267 178.916 33.28C178.969 33.0133 178.996 32.7467 178.996 32.48V31.72C178.996 30.7067 178.703 29.9867 178.116 29.56C177.529 29.1067 176.663 28.88 175.516 28.88C174.156 28.88 172.929 29.0533 171.836 29.4C170.743 29.7467 169.823 30.0933 169.076 30.44L167.836 26.36ZM174.676 41.04C175.956 41.04 176.916 40.8133 177.556 40.36C178.196 39.88 178.663 39.3733 178.956 38.84V36.44C178.689 36.3867 178.289 36.3333 177.756 36.28C177.223 36.2 176.649 36.16 176.036 36.16C175.529 36.16 175.023 36.2133 174.516 36.32C174.009 36.4 173.556 36.5467 173.156 36.76C172.756 36.9467 172.436 37.2 172.196 37.52C171.956 37.84 171.836 38.2267 171.836 38.68C171.836 39.4267 172.049 40.0133 172.476 40.44C172.929 40.84 173.663 41.04 174.676 41.04Z" fill="#00ACFF"/>
</svg>
