<svg width="175" height="43" viewBox="0 0 175 43" fill="none" xmlns="http://www.w3.org/2000/svg">
<rect y="3" width="40" height="40" rx="10" fill="#2C2B6B"/>
<rect x="1" y="1" width="38" height="38" rx="9" fill="#C9C8FF" stroke="#2C2B6B" stroke-width="2"/>
<path d="M14.8591 26L18.3791 14.48H21.6271L25.1471 26H22.9071L19.7711 15.84H20.1871L17.0991 26H14.8591ZM16.9711 23.6V21.568H23.0511V23.6H16.9711Z" fill="#2C2B6B"/>
<rect x="45" y="3" width="40" height="40" rx="10" fill="#17713A"/>
<rect x="46" y="1" width="38" height="38" rx="9" fill="#ACF3C7" stroke="#17713A" stroke-width="2"/>
<path d="M65.1048 26.24C64.2515 26.24 63.4808 26.0907 62.7928 25.792C62.1101 25.488 61.5475 25.056 61.1048 24.496C60.6675 23.9307 60.3901 23.2587 60.2728 22.48L62.5448 22.144C62.7048 22.8053 63.0355 23.3147 63.5368 23.672C64.0381 24.0293 64.6088 24.208 65.2488 24.208C65.6061 24.208 65.9528 24.152 66.2888 24.04C66.6248 23.928 66.8995 23.7627 67.1128 23.544C67.3315 23.3253 67.4408 23.056 67.4408 22.736C67.4408 22.6187 67.4221 22.5067 67.3848 22.4C67.3528 22.288 67.2968 22.184 67.2168 22.088C67.1368 21.992 67.0221 21.9013 66.8728 21.816C66.7288 21.7307 66.5448 21.6533 66.3208 21.584L63.3288 20.704C63.1048 20.64 62.8435 20.5493 62.5448 20.432C62.2515 20.3147 61.9661 20.1467 61.6888 19.928C61.4115 19.7093 61.1795 19.4213 60.9928 19.064C60.8115 18.7013 60.7208 18.2453 60.7208 17.696C60.7208 16.9227 60.9155 16.28 61.3048 15.768C61.6941 15.256 62.2141 14.8747 62.8648 14.624C63.5155 14.3733 64.2355 14.2507 65.0248 14.256C65.8195 14.2667 66.5288 14.4027 67.1528 14.664C67.7768 14.9253 68.2995 15.3067 68.7208 15.808C69.1421 16.304 69.4461 16.912 69.6328 17.632L67.2808 18.032C67.1955 17.6587 67.0381 17.344 66.8088 17.088C66.5795 16.832 66.3048 16.6373 65.9848 16.504C65.6701 16.3707 65.3395 16.2987 64.9928 16.288C64.6515 16.2773 64.3288 16.3253 64.0248 16.432C63.7261 16.5333 63.4808 16.6827 63.2888 16.88C63.1021 17.0773 63.0088 17.312 63.0088 17.584C63.0088 17.8347 63.0861 18.04 63.2408 18.2C63.3955 18.3547 63.5901 18.48 63.8248 18.576C64.0595 18.672 64.2995 18.752 64.5448 18.816L66.5448 19.36C66.8435 19.44 67.1741 19.5467 67.5368 19.68C67.8995 19.808 68.2461 19.9893 68.5768 20.224C68.9128 20.4533 69.1875 20.7573 69.4008 21.136C69.6195 21.5147 69.7288 21.9947 69.7288 22.576C69.7288 23.1947 69.5981 23.736 69.3368 24.2C69.0808 24.6587 68.7341 25.04 68.2968 25.344C67.8595 25.6427 67.3635 25.8667 66.8088 26.016C66.2595 26.1653 65.6915 26.24 65.1048 26.24Z" fill="#17713A"/>
<rect x="90" y="3" width="40" height="40" rx="10" fill="#821729"/>
<rect x="91" y="1" width="38" height="38" rx="9" fill="#FFBDCA" stroke="#821729" stroke-width="2"/>
<path d="M105.44 26V14.48H109.168C109.259 14.48 109.446 14.4827 109.728 14.488C110.011 14.4933 110.283 14.512 110.544 14.544C111.472 14.656 112.259 14.9787 112.904 15.512C113.55 16.0453 114.04 16.7227 114.376 17.544C114.712 18.3653 114.88 19.264 114.88 20.24C114.88 21.216 114.712 22.1147 114.376 22.936C114.04 23.7573 113.55 24.4347 112.904 24.968C112.259 25.5013 111.472 25.824 110.544 25.936C110.283 25.968 110.011 25.9867 109.728 25.992C109.446 25.9973 109.259 26 109.168 26H105.44ZM107.648 23.952H109.168C109.312 23.952 109.507 23.9493 109.752 23.944C109.998 23.9333 110.219 23.9093 110.416 23.872C110.918 23.7707 111.326 23.536 111.64 23.168C111.96 22.8 112.195 22.3573 112.344 21.84C112.499 21.3227 112.576 20.7893 112.576 20.24C112.576 19.664 112.496 19.1173 112.336 18.6C112.182 18.0827 111.944 17.6453 111.624 17.288C111.304 16.9307 110.902 16.704 110.416 16.608C110.219 16.5653 109.998 16.5413 109.752 16.536C109.507 16.5307 109.312 16.528 109.168 16.528H107.648V23.952Z" fill="#821729"/>
<rect x="135" y="3" width="40" height="40" rx="10" fill="#00635F"/>
<rect x="136" y="1" width="38" height="38" rx="9" fill="#99E9E5" stroke="#00635F" stroke-width="2"/>
<path d="M151.878 26V14.48H158.918V16.656H154.054V19.152H157.958V21.328H154.054V26H151.878Z" fill="#00635F"/>
</svg>
