<svg width="320" height="200" viewBox="0 0 320 200" fill="none" xmlns="http://www.w3.org/2000/svg">
<g clip-path="url(#clip0_1152_13880)">
<path d="M215.047 14.0853C207.946 11.8325 200.338 15.7757 198.085 22.8764C195.833 29.977 199.776 37.5852 206.876 39.838C213.977 42.0909 221.585 38.1476 223.838 31.047C226.112 23.9529 222.168 16.3447 215.047 14.0853ZM208.446 34.8904C204.099 33.5111 201.668 28.8207 203.054 24.4527C204.433 20.1054 209.123 17.6744 213.471 19.0537C217.839 20.4395 220.249 25.1233 218.87 29.4707C217.505 33.8453 212.814 36.2762 208.446 34.8904ZM212.183 23.1112C210.072 22.4413 207.781 23.6285 207.111 25.74C206.435 27.8723 207.608 30.1357 209.74 30.8122C211.872 31.4887 214.136 30.3156 214.812 28.1833C215.503 26.0783 214.316 23.7877 212.183 23.1112Z" fill="#FFCC00"/>
<path d="M208.505 27.7568C208.505 27.7568 208.997 28.7529 210.466 29.219C211.725 29.6184 212.702 29.0883 212.702 29.0883" stroke="black" stroke-width="0.400264" stroke-linecap="round"/>
<circle cx="202.695" cy="19.9295" r="0.50033" transform="rotate(17.6028 202.695 19.9295)" fill="black"/>
<circle cx="221.952" cy="25.4096" r="0.50033" transform="rotate(17.6028 221.952 25.4096)" fill="black"/>
<path d="M118.67 17.1565L124.782 23.5122C125.34 24.0892 126.172 24.2859 126.928 24.0313L135.302 21.2344C137.077 20.6447 138.672 22.5145 137.786 24.1628L133.612 31.9231C133.224 32.6177 133.303 33.4703 133.777 34.1078L139.006 41.1988C140.128 42.6985 138.828 44.7834 136.979 44.4651L128.294 42.9385C127.512 42.8013 126.706 43.1301 126.243 43.7746L121.101 50.9379C120.001 52.4587 117.637 51.8675 117.367 50.0202L116.181 41.3082C116.075 40.5204 115.512 39.8651 114.771 39.6308L106.353 36.9769C104.566 36.4183 104.4 33.9661 106.081 33.1466L114.023 29.2922C114.742 28.9456 115.2 28.2228 115.195 27.4204L115.121 18.6033C115.097 16.7634 117.378 15.8333 118.67 17.1565Z" fill="#FFCC00"/>
<path d="M120.114 33.6965C120.114 33.6965 121.339 34.24 123.061 33.538C124.537 32.9364 125.033 31.691 125.033 31.691" stroke="black" stroke-width="0.482978" stroke-linecap="round"/>
<circle cx="118.282" cy="31.4439" r="0.603722" transform="rotate(-22.1791 118.282 31.4439)" fill="black"/>
<circle cx="124.32" cy="28.9825" r="0.603722" transform="rotate(-22.1791 124.32 28.9825)" fill="black"/>
<path d="M160.795 5.60775L161.044 5.17464L160.795 5.60775C161.762 6.166 163.139 5.9649 163.907 5.15352C164.871 4.13461 166.235 3.5 167.748 3.5C169.242 3.5 170.591 4.11958 171.553 5.11724C171.962 5.54127 172.529 5.78508 173.094 5.85839C173.659 5.9317 174.269 5.84062 174.772 5.53506C175.963 4.81277 177.433 4.55935 178.883 4.94798C180.327 5.33481 181.47 6.28243 182.141 7.49512C182.426 8.01054 182.91 8.39269 183.437 8.60968C183.964 8.82668 184.577 8.8966 185.142 8.7318C186.479 8.34225 187.965 8.47802 189.265 9.22879C190.56 9.9761 191.418 11.1872 191.752 12.5323C191.895 13.104 192.263 13.5984 192.716 13.9443C193.168 14.2902 193.742 14.5163 194.331 14.5035C195.723 14.4733 197.123 14.989 198.185 16.0507C199.242 17.1076 199.758 18.4996 199.733 19.8854C199.722 20.4744 199.95 21.0474 200.298 21.4986C200.645 21.9499 201.141 22.3168 201.713 22.4569C203.066 22.788 204.285 23.6485 205.035 24.9488C205.783 26.2432 205.921 27.7213 205.538 29.0534C205.375 29.6196 205.447 30.2321 205.666 30.7579C205.885 31.2837 206.269 31.7665 206.785 32.0499C208.006 32.7197 208.961 33.8664 209.349 35.3168C209.736 36.7604 209.487 38.2239 208.772 39.4115C208.469 39.9162 208.38 40.5266 208.455 41.0911C208.53 41.6557 208.776 42.2214 209.202 42.6288C210.208 43.5918 210.833 44.9464 210.833 46.4479C210.833 47.9425 210.213 49.2916 209.216 50.2537C208.792 50.6627 208.548 51.2292 208.475 51.7941C208.401 52.3589 208.492 52.9689 208.798 53.4726C209.52 54.6631 209.774 56.1334 209.385 57.5838C208.998 59.0275 208.05 60.1702 206.838 60.8414C206.322 61.1266 205.94 61.6108 205.723 62.1374C205.506 62.664 205.436 63.2768 205.601 63.8424C205.991 65.1793 205.855 66.6651 205.104 67.9654C204.357 69.2598 203.146 70.1183 201.801 70.4528C201.229 70.5949 200.735 70.9637 200.389 71.4162C200.043 71.8686 199.817 72.4425 199.829 73.0314C199.86 74.4236 199.344 75.8236 198.282 76.8854C197.199 77.9684 195.764 78.4834 194.344 78.4301C193.742 78.4075 193.149 78.6353 192.68 78.985C192.211 79.3347 191.824 79.8384 191.674 80.4221C191.332 81.7511 190.478 82.9456 189.196 83.6855C187.933 84.4151 186.494 84.5638 185.187 84.2141C184.107 83.9254 182.83 84.476 182.298 85.4585C181.63 86.6923 180.477 87.6582 179.016 88.0497C177.537 88.4461 176.036 88.1745 174.834 87.4185C174.323 87.0978 173.696 86.9985 173.115 87.0669C172.534 87.1353 171.946 87.3778 171.525 87.8083C170.564 88.7885 169.227 89.3959 167.748 89.3959C166.249 89.3959 164.896 88.7727 163.933 87.77C163.528 87.3479 162.968 87.1037 162.407 87.0289C161.847 86.9541 161.242 87.0427 160.74 87.3437C159.554 88.0554 158.093 88.3031 156.652 87.917C155.204 87.5291 154.059 86.5771 153.389 85.3594C153.106 84.8468 152.628 84.4658 152.106 84.2486C151.585 84.0313 150.977 83.9603 150.415 84.1211C149.084 84.5015 147.609 84.3628 146.317 83.6168C145.019 82.8673 144.159 81.6514 143.827 80.3017C143.687 79.7335 143.324 79.2417 142.876 78.8969C142.428 78.552 141.86 78.3261 141.275 78.3359C139.891 78.3591 138.503 77.8432 137.448 76.7882C136.388 75.7284 135.872 74.3313 135.9 72.9416C135.912 72.3566 135.688 71.7875 135.345 71.3385C135.002 70.8895 134.511 70.5243 133.944 70.3823C132.602 70.0466 131.393 69.1888 130.647 67.8968C129.898 66.5987 129.761 65.1158 130.148 63.7807C130.311 63.2187 130.242 62.6111 130.027 62.0886C129.812 61.566 129.433 61.0863 128.921 60.8022C127.711 60.1306 126.767 58.9894 126.38 57.5482C125.992 56.1004 126.244 54.6327 126.964 53.4433C127.266 52.9426 127.357 52.3379 127.284 51.7774C127.212 51.2169 126.97 50.6554 126.549 50.2486C125.554 49.2868 124.937 47.9399 124.937 46.4479C124.937 44.949 125.56 43.5965 126.563 42.6338C126.985 42.2285 127.229 41.6679 127.304 41.1077C127.379 40.5475 127.29 39.9425 126.989 39.4407C126.278 38.2542 126.03 36.7934 126.416 35.3523C126.804 33.9045 127.756 32.7593 128.974 32.0889C129.486 31.8068 129.867 31.3284 130.084 30.8067C130.302 30.2849 130.373 29.6776 130.212 29.115C129.831 27.7847 129.97 26.3096 130.716 25.0175C131.466 23.7194 132.682 22.8597 134.031 22.5273C134.599 22.3874 135.091 22.024 135.436 21.5762C135.781 21.1285 136.007 20.5602 135.997 19.9752C135.974 18.5918 136.49 17.2028 137.545 16.1478C138.577 15.116 139.928 14.5999 141.281 14.5994C142.398 14.599 143.49 13.7363 143.749 12.6497C144.075 11.2852 144.939 10.0538 146.249 9.29748C147.575 8.53164 149.095 8.40571 150.452 8.82463C151.028 9.0023 151.66 8.9358 152.203 8.71938C152.747 8.50295 153.251 8.11669 153.547 7.59171C154.221 6.39633 155.355 5.46365 156.785 5.08065C158.194 4.70296 159.622 4.93168 160.795 5.60775Z" fill="white" stroke="#DFF4FF"/>
<rect x="152.383" y="52.976" width="28.7581" height="66.81" rx="14.3791" fill="#FFBDCA"/>
<path d="M120.118 106.108C107.819 112.575 82.3001 115.694 74 115.665C74.8768 117.769 82.3293 128.817 104.161 129.43C122.2 142.821 149.004 142.207 169.042 132.199C187.797 122.831 198.422 92.1677 169.042 92.1677C150.981 92.1677 137.128 97.1653 120.118 106.108Z" fill="#FF9500"/>
<path d="M166.938 59.4641C168.012 59.4641 169.019 59.1712 169.881 58.6608C170.938 59.802 172.449 60.5163 174.127 60.5163C175.054 60.5163 175.929 60.2985 176.706 59.9115C177.747 61.4409 179.502 62.4452 181.492 62.4452C184.688 62.4452 187.279 59.8544 187.279 56.6585C187.279 53.4626 184.688 50.8718 181.492 50.8718C180.566 50.8718 179.69 51.0895 178.914 51.4765C177.872 49.9472 176.117 48.9429 174.127 48.9429C173.053 48.9429 172.046 49.2358 171.184 49.7462C170.127 48.6051 168.616 47.8907 166.938 47.8907C165.491 47.8907 164.169 48.4215 163.154 49.2989C162.53 49.0686 161.855 48.9429 161.151 48.9429C159.189 48.9429 157.455 49.9194 156.408 51.4131C155.665 51.0658 154.836 50.8718 153.961 50.8718C150.766 50.8718 148.175 53.4626 148.175 56.6585C148.175 59.8544 150.766 62.4452 153.961 62.4452C155.924 62.4452 157.658 61.4686 158.704 59.975C159.447 60.3223 160.277 60.5163 161.151 60.5163C162.598 60.5163 163.92 59.9855 164.935 59.1081C165.559 59.3384 166.234 59.4641 166.938 59.4641Z" fill="white"/>
<path fill-rule="evenodd" clip-rule="evenodd" d="M155.342 95.4114C155.604 95.331 155.875 95.2698 156.154 95.2296C164.225 94.0662 170.174 94.0722 178.242 95.2321C178.516 95.2714 178.782 95.3309 179.039 95.4089C180.539 95.5944 182.252 95.9792 183.537 96.7777C186.017 98.319 195.407 106.466 198.242 109.769C198.787 110.404 199.353 110.989 199.909 111.564C202.242 113.978 204.399 116.209 204.113 121.189C203.759 127.354 195.744 136.629 192.927 138.834C189.821 141.264 188.419 141.809 186.017 142.136C184.096 142.398 183.179 142.184 182.895 140.655V142.933L182.895 142.949V193.961L187.279 197.819H167.99V148.544H166.412V197.819H147.473L151.507 193.961V140.654C151.223 142.184 150.305 142.398 148.384 142.136C145.983 141.809 144.58 141.264 141.475 138.834C138.658 136.629 131.376 128.265 131.022 122.099C130.679 116.139 133.151 113.266 135.877 110.098C135.971 109.988 136.065 109.879 136.16 109.769C138.994 106.466 148.384 98.319 150.865 96.7777C152.144 95.9828 153.847 95.5979 155.342 95.4114ZM151.507 109.355C150.148 109.954 144.811 115.307 143.069 117.255L142.994 117.339C141.253 119.287 139.706 121.017 139.88 122.32C140.016 123.335 140.885 124.48 142.003 125.954C142.34 126.399 142.7 126.874 143.069 127.384C144.664 129.586 147.115 131.993 147.824 131.993C148.488 131.993 149.021 130.655 149.377 129.762C149.401 129.701 149.425 129.642 149.447 129.586C149.637 129.113 150.515 127.929 151.507 126.729L151.507 109.355ZM182.895 126.729V109.355C184.254 109.954 189.591 115.307 191.332 117.255L191.407 117.339C193.149 119.287 194.696 121.017 194.521 122.32C194.385 123.335 193.517 124.479 192.399 125.954L192.399 125.954C192.062 126.399 191.702 126.874 191.332 127.384C189.738 129.586 187.286 131.993 186.577 131.993C185.914 131.993 185.381 130.655 185.025 129.762C185 129.701 184.977 129.642 184.954 129.586C184.764 129.113 183.887 127.929 182.895 126.729Z" fill="#00ACFF"/>
<path d="M153.786 134.34L180.528 133.99L182.72 139.25H151.77L153.786 134.34Z" fill="#007AFF"/>
<path d="M182.828 140.155C182.651 138.173 181.234 134.87 179.816 133.109C178.399 131.347 177.868 130.026 178.399 129.586C178.931 129.145 179.468 129.429 180.177 130.309C180.744 131.014 181.588 131.934 181.765 132.228C180.643 130.907 177.83 127.571 177.547 126.867C177.192 125.986 177.62 124.301 178.753 125.182M178.753 125.182C179.887 126.063 181.116 127.604 181.588 128.265C180.761 127.31 179.32 125.887 178.753 125.182ZM178.753 125.182C178.045 124.301 179.023 122.71 180.44 124.031C181.857 125.352 182.825 126.337 183.179 127.217" stroke="#003D80" stroke-width="0.350709"/>
<path d="M151.682 140.155C151.859 138.173 153.276 134.87 154.694 133.109C156.111 131.347 156.642 130.026 156.111 129.586C155.579 129.145 155.042 129.429 154.333 130.309C153.766 131.014 152.922 131.934 152.745 132.228C153.867 130.907 156.68 127.571 156.963 126.867C157.318 125.986 156.891 124.301 155.757 125.182M155.757 125.182C154.623 126.063 153.394 127.604 152.922 128.265C153.749 127.31 155.19 125.887 155.757 125.182ZM155.757 125.182C156.465 124.301 155.487 122.71 154.07 124.031C152.653 125.352 151.685 126.337 151.331 127.217" stroke="#003D80" stroke-width="0.350709"/>
<circle cx="167.289" cy="107.511" r="7.54024" fill="#007AFF"/>
<path fill-rule="evenodd" clip-rule="evenodd" d="M169.735 106.158C169.676 106.545 169.327 106.972 168.658 106.972H166.237L166.482 105.357H168.901C169.57 105.357 169.792 105.772 169.735 106.158ZM166.035 108.313H168.028L168.988 110.632C169.081 110.867 169.287 111.018 169.657 111.018C170.125 111.018 170.505 110.674 170.568 110.259C170.588 110.121 170.567 109.983 170.511 109.873L169.773 108.078C170.766 107.719 171.285 107.014 171.411 106.171C171.593 104.972 170.885 104.004 168.849 104.004H165.832C165.362 104.004 164.921 104.376 164.853 104.832L164.044 110.191C163.976 110.645 164.304 111.018 164.774 111.018C165.244 111.018 165.685 110.645 165.753 110.191L166.035 108.313Z" fill="white"/>
<path fill-rule="evenodd" clip-rule="evenodd" d="M162.313 107.101H159.685C159.29 107.101 158.923 107.411 158.865 107.794C158.806 108.176 159.081 108.487 159.476 108.487H162.103C162.499 108.487 162.866 108.176 162.923 107.794C162.982 107.411 162.708 107.101 162.313 107.101ZM162.768 104.083H157.068C156.674 104.083 156.307 104.394 156.249 104.777C156.191 105.16 156.466 105.471 156.86 105.471H162.56C162.955 105.471 163.321 105.16 163.379 104.777C163.436 104.394 163.163 104.083 162.768 104.083Z" fill="white"/>
<circle cx="1.5" cy="1.5" r="1.41232" transform="matrix(-1 0 0 1 161.99 69.4592)" fill="#4C5052" stroke="#4C5052" stroke-width="0.175354"/>
<circle cx="1.5" cy="1.5" r="1.41232" transform="matrix(-1 0 0 1 175.53 69.4592)" fill="#4C5052" stroke="#4C5052" stroke-width="0.175354"/>
<path d="M162 76C162 76 163.925 78 167.775 78C171.075 78 173 76 173 76" stroke="#4C5052" stroke-width="2" stroke-linecap="round"/>
<mask id="mask0_1152_13880" style="mask-type:alpha" maskUnits="userSpaceOnUse" x="213" y="159" width="36" height="35">
<ellipse cx="231.367" cy="176.423" rx="17.3667" ry="17.4234" fill="#79BB38"/>
</mask>
<g mask="url(#mask0_1152_13880)">
<ellipse cx="2.08042" cy="2.08205" rx="2.08042" ry="2.08205" transform="matrix(0.551921 -0.833897 0.83491 0.550387 214.297 185.105)" fill="#68A42D"/>
</g>
<ellipse cx="231.367" cy="176.423" rx="17.3667" ry="17.4234" fill="#FFD599"/>
<circle cx="2.74611" cy="2.74611" r="2.74611" transform="matrix(-1 -2.93204e-09 -2.93204e-09 1 241.966 173.184)" fill="white"/>
<ellipse cx="238.641" cy="176.615" rx="1.47445" ry="1.47767" transform="rotate(11.3009 238.641 176.615)" fill="black"/>
<circle cx="2.94227" cy="2.94227" r="2.94227" transform="matrix(-1 -2.93204e-09 -2.93204e-09 1 233.423 170.605)" fill="white"/>
<ellipse cx="229.861" cy="174.281" rx="1.57977" ry="1.58322" transform="rotate(11.3009 229.861 174.281)" fill="black"/>
<path d="M222.774 191.534C225.587 189.643 222.837 187.003 221.111 185.919C220.2 187.097 216.698 188.23 214.309 187.437C211.323 186.446 210.575 183.045 207.632 184.91C204.689 186.776 207.402 188.121 210.69 190.662C213.978 193.204 219.258 193.898 222.774 191.534Z" fill="#FFD599"/>
<path d="M207.632 184.91C204.689 186.776 207.402 188.12 210.69 190.662C211.328 189.838 213.87 190.674 214.599 189.731C215.182 188.977 214.649 187.887 214.309 187.437C211.323 186.446 210.575 183.044 207.632 184.91Z" fill="#FF9500"/>
<path d="M229.474 193.412C231.174 195.055 225.491 195.358 223.954 194.744C218.556 192.53 225.042 185.433 225.042 185.433C225.928 185.03 227.302 185.501 227.701 186.803C228.229 188.523 227.057 191.074 229.474 193.412Z" fill="#FF9500"/>
<path d="M233.451 193.412C231.751 195.055 237.434 195.358 238.971 194.744C244.369 192.53 237.883 185.433 237.883 185.433C236.997 185.03 235.623 185.501 235.224 186.803C234.696 188.523 235.868 191.074 233.451 193.412Z" fill="#FF9500"/>
<circle cx="1.20884" cy="1.20884" r="1.20884" transform="matrix(-0.998438 -0.0558703 -0.0558703 0.998438 236.013 176.046)" fill="#FF9500"/>
<circle cx="2.49826" cy="2.49826" r="2.49826" transform="matrix(-0.998438 -0.0558703 -0.0558703 0.998438 238.838 177.495)" fill="#FFEB99"/>
<circle cx="2.90121" cy="2.90121" r="2.90121" transform="matrix(-0.998438 -0.0558703 -0.0558703 0.998438 234.726 175.974)" fill="#FFEB99"/>
<path d="M231.265 154.77C231.964 155.869 232.657 157.967 232.464 160.164C232.375 161.163 232.164 161.363 230.966 161.363C226.173 161.363 223.078 162.862 221.879 163.461C220.681 164.06 221.081 163.161 221.28 162.262C221.658 160.564 224.076 155.669 229.468 154.171C230.329 153.932 230.906 154.205 231.265 154.77Z" fill="#FFD599"/>
<path d="M230.387 155.732C230.83 156.435 231.269 157.778 231.146 159.184C231.09 159.823 231.093 159.768 230.387 160.048C227.943 161.015 225.687 161.293 224.438 161.293C223.587 161.293 223.931 161.102 224.058 160.526C224.297 159.44 225.83 156.307 229.247 155.348C229.793 155.195 230.159 155.37 230.387 155.732Z" fill="#FF9500"/>
<path d="M239.797 156.737C238.879 157.433 237.659 158.957 237.144 160.838C236.909 161.693 237.023 161.923 238.016 162.292C241.987 163.767 244.09 165.961 244.899 166.826C245.707 167.692 245.653 166.824 245.764 166.017C245.974 164.494 245.476 159.694 241.47 156.794C240.831 156.331 240.268 156.379 239.797 156.737Z" fill="#FFD599"/>
<path d="M240.229 157.804C239.645 158.251 238.868 159.228 238.537 160.431C238.387 160.978 238.402 160.931 238.901 161.38C240.628 162.933 242.411 163.859 243.446 164.243C244.151 164.505 243.925 164.24 243.997 163.724C244.133 162.75 243.827 159.683 241.291 157.837C240.886 157.543 240.529 157.575 240.229 157.804Z" fill="#FF9500"/>
<mask id="mask1_1152_13880" style="mask-type:alpha" maskUnits="userSpaceOnUse" x="213" y="159" width="36" height="35">
<ellipse cx="231.367" cy="176.423" rx="17.3667" ry="17.4234" fill="#FFD599"/>
</mask>
<g mask="url(#mask1_1152_13880)">
<path d="M224.191 178.1C219.258 180.708 218.068 184.946 217.161 187.303C214.268 185.618 211.384 175.808 214.585 172.961C217.786 170.113 221.175 169.795 224.191 170.058C217.724 173.498 215.737 179.842 215.692 180.364C217.423 178.616 220.368 178.1 224.191 178.1Z" fill="#FF9500"/>
<path d="M244.077 180.073C246.597 182.118 246.797 184.671 247.049 186.118C248.89 185.483 251.643 180.211 250.138 178.225C248.633 176.238 246.735 175.674 244.984 175.484C248.287 178.177 248.704 182.021 248.671 182.324C247.88 181.131 246.258 180.504 244.077 180.073Z" fill="#FF9500"/>
</g>
<path d="M76.2859 53.0979C78.9522 54.1537 76.6671 60.7998 75.7422 63.3665C73.0867 62.577 67.4212 60.4077 66.003 58.0464C64.2304 55.0948 63.4613 49.6862 66.1531 49.2627C68.8449 48.8393 69.4069 52.069 70.2172 52.3327C71.0275 52.5964 70.4855 48.9066 72.2199 49.7584C73.8425 50.5553 72.499 53.4919 73.7327 54.0533C74.1546 54.2453 75.2832 52.7009 76.2859 53.0979Z" fill="#51422F"/>
<circle cx="5.38944" cy="5.38944" r="5.38944" transform="matrix(-0.999975 0.00713205 0.00713205 0.999975 65.5314 56.5431)" fill="#A2845E"/>
<circle cx="3.38474" cy="3.38474" r="3.38474" transform="matrix(-1 0 0 1 63.4415 58.3484)" fill="white"/>
<ellipse cx="1.17312" cy="1.10412" rx="1.17312" ry="1.10412" transform="matrix(-0.999975 0.00713205 0.00713205 0.999975 60.7944 60.2004)" fill="black"/>
<circle cx="15.7641" cy="15.7641" r="15.7641" transform="matrix(-0.999975 0.00713205 0.00713205 0.999975 85.4797 57.4786)" fill="#A2845E"/>
<circle cx="5.38944" cy="5.38944" r="5.38944" transform="matrix(-0.999975 0.00713205 0.00713205 0.999975 84.3843 55.0612)" fill="#A2845E"/>
<circle cx="3.38474" cy="3.38474" r="3.38474" transform="matrix(-1 0 0 1 82.4604 57.2201)" fill="white"/>
<circle cx="1.34734" cy="1.34734" r="1.34734" transform="matrix(-0.999975 0.00713205 0.00713205 0.999975 80.2937 59.1929)" fill="black"/>
<ellipse cx="0.729186" cy="0.89876" rx="0.729186" ry="0.89876" transform="matrix(-0.965142 0.261728 0.261728 0.965142 72.3238 66.7982)" fill="#51422F"/>
<ellipse cx="0.729187" cy="0.89876" rx="0.729187" ry="0.89876" transform="matrix(-0.978157 -0.207868 -0.207868 0.978157 68.005 67.3688)" fill="#51422F"/>
<path d="M87.547 65.7386C87.2728 68.157 84.6451 68.8623 83.1036 69.6852C83.1643 70.1623 83.4053 71.0012 83.8834 70.5393C84.481 69.9619 85.223 69.629 86.4291 69.8907C87.6351 70.1524 87.7393 71.6035 88.0754 71.7129C88.4114 71.8222 88.955 70.5031 90.8509 71.1486C92.6223 71.7518 92.2865 73.938 92.6339 73.9934C92.9814 74.0488 93.2849 72.2491 95.4657 72.6633C97.6464 73.0776 97.7121 75.5503 98.0177 75.5963C98.5627 75.6784 98.6732 67.2863 93.2136 64.2385C90.2008 62.5566 88.004 61.7072 87.547 65.7386Z" fill="#A2845E"/>
<path d="M53.6686 67.0846C53.9196 69.5212 56.0347 70.199 57.2808 71.0094C57.2383 71.4916 57.056 72.3411 56.6669 71.8812C56.1805 71.3064 55.5815 70.98 54.6183 71.2597C53.655 71.5393 53.5902 73.0049 53.3223 73.1195C53.0544 73.2342 52.6017 71.9102 51.0906 72.5861C49.6786 73.2176 49.976 75.4192 49.6982 75.4795C49.4205 75.5399 49.1539 73.7278 47.4115 74.174C45.6691 74.6202 45.6484 77.1161 45.404 77.1665C44.9683 77.2563 44.7713 68.7899 49.1077 65.6441C51.5006 63.9081 53.2503 63.0226 53.6686 67.0846Z" fill="#A2845E"/>
<path d="M84.0029 86.7983C82.4485 85.8665 81.8846 83.7297 81.1212 82.5714L77.2634 84.7318C77.7775 85.5959 78.8744 87.0908 80.1007 87.1763C81.0343 87.2414 82.0537 87.172 82.0832 87.5393C82.1082 87.8494 78.2407 91.2204 77.5579 93.2421C76.9116 95.1557 77.5758 95.7572 77.9384 95.7546C78.7259 95.749 79.2331 92.3596 79.8473 92.5418C80.1728 92.6383 79.7916 94.951 80.7296 94.913C81.1124 94.8975 80.9289 92.3741 81.7533 92.3682C82.0906 92.3658 82.1057 93.2071 82.1929 93.6202C82.2801 94.0333 82.8726 94.3503 82.8686 93.7833C82.86 92.5842 82.5127 91.1055 84.018 88.92C84.9673 87.5417 84.6526 87.1877 84.0029 86.7983Z" fill="#A2845E"/>
<path d="M65.1087 87.9638C64.1426 87.2178 63.7899 85.5106 63.3146 84.5847L61.0508 83.9272C61.371 84.6178 60.9051 87.9938 62.687 88.2608C63.2626 88.347 63.8992 88.2598 63.9181 88.5531C63.9339 88.8008 61.5375 91.4879 61.1162 93.1014C60.7175 94.6288 61.1306 95.11 61.3556 95.1084C61.8444 95.1049 62.155 92.3989 62.5365 92.5451C62.7386 92.6226 62.505 94.469 63.0871 94.4398C63.3248 94.4279 63.2077 92.4126 63.7194 92.409C63.9288 92.4075 63.9392 93.0793 63.9938 93.4093C64.0485 93.7393 64.4167 93.9932 64.4135 93.5404C64.4066 92.5828 64.1892 91.4016 65.1208 89.6582C65.7083 88.5587 65.5125 88.2757 65.1087 87.9638Z" fill="#A2845E"/>
<path d="M76.5118 74.7892C76.3292 75.6837 76.6598 76.4819 76.9268 77.1265C77.1728 77.7205 77.3648 78.1842 77.0515 78.4727C76.5292 78.9537 74.727 77.1608 74.2008 75.9038L76.5118 74.7892Z" fill="white"/>
<path d="M72.6104 85.9459C72.4786 83.5842 73.7845 82.5529 74.6142 81.6573C76.397 80.5314 76.9147 80.5613 76.8221 82.0008C76.7613 82.0895 76.6001 82.4375 76.4419 83.1192C76.2442 83.9713 76.8473 84.7843 76.6476 84.922C76.0444 85.2339 75.941 83.9293 75.6828 83.9576C75.0631 84.0253 75.6353 85.9341 75.3131 86.0394C74.642 86.2587 74.6087 84.4331 74.3106 84.4435C73.9586 84.5249 73.7294 85.3747 73.7524 86.0855C73.9277 87.7162 72.6581 86.7994 72.6104 85.9459Z" fill="#51422F"/>
<path d="M67.0328 85.9856C67.131 83.6223 65.8105 82.6097 64.968 81.7261C62.9676 80.4321 62.4656 80.5094 62.7653 82.1009C62.8274 82.1888 62.9935 82.5344 63.1614 83.2138C63.3713 84.063 62.7798 84.8846 62.9815 85.0193C63.5891 85.3227 63.6739 84.0167 63.9324 84.0413C64.553 84.1002 64.0081 86.017 64.3317 86.1176C65.0059 86.3273 65.0132 84.5015 65.3114 84.5076C65.6645 84.584 65.9058 85.4304 65.893 86.1415C65.7409 87.7745 66.9974 86.8397 67.0328 85.9856Z" fill="#51422F"/>
<path d="M67.8274 76.1987C68.6406 76.8666 71.3461 77.1099 73.3533 76.4288C75.3606 75.7476 76.1712 74.7918 76.1712 74.7918M76.1712 74.7918C75.7385 74.5793 75.6278 74.1669 75.6265 73.9872M76.1712 74.7918C76.7121 75.0574 77.2491 74.7841 77.2491 74.7841" stroke="#51422F" stroke-width="1.42682" stroke-linecap="round" stroke-linejoin="round"/>
<path d="M256.911 103.766C259.607 103.273 264.887 104.171 268.183 105.13C268.897 105.14 270.376 105.978 268.375 108.135C266.374 110.292 262.842 110.791 264.181 111.145C265.519 111.498 264.028 113.801 261.448 114.72C258.868 115.639 254.719 115.807 252.81 112.529C250.901 109.25 252.304 104.608 256.911 103.766Z" fill="#003D80"/>
<path d="M239.599 123.2L242.215 120.103L243.574 120.588L239.759 125.105C239.105 125.879 241.665 129.149 241.745 130.101C241.825 131.053 241.081 131.054 240.614 130.457C240.199 129.924 240.148 128.309 239.672 128.349C239.196 128.389 239.694 129.639 239.642 130.593C239.604 131.276 239.04 131.669 238.395 131.124C237.75 130.578 237.966 128.013 237.459 126.257C236.952 124.502 235.106 123.154 235.855 122.449C236.276 122.053 237.668 123.339 238 123.785C238.62 124.618 239.093 123.732 239.599 123.2Z" fill="#804A00"/>
<path d="M244.321 125.201L245.965 121.945L247.582 122.649C246.803 123.833 245.195 126.47 244.997 127.542C244.75 128.881 247.388 131.196 247.629 131.756C247.927 132.45 246.995 132.769 246.568 131.965C246.085 131.058 245.068 129.814 244.721 129.963C244.374 130.112 245.148 130.766 245.248 131.956C245.348 133.147 244.118 132.771 243.8 131.838C243.569 131.16 243.024 128.307 242.597 127.504C242.17 126.7 241.049 126.195 240.92 126.086C240.791 125.977 240.255 125.675 240.602 125.154C240.825 124.819 241.287 125.002 241.536 125.159C241.874 125.37 242.576 125.808 242.853 125.95C243.517 126.29 243.941 126.013 244.321 125.201Z" fill="#804A00"/>
<ellipse cx="15.8582" cy="15.8636" rx="15.8582" ry="15.8636" transform="matrix(-0.999993 -0.00377308 -0.00377308 0.999993 262.691 91.7699)" fill="#007AFF"/>
<path d="M243.173 109.464C243.416 103.91 235.439 104.737 231.151 105.906C230.974 105.954 230.847 106.106 230.828 106.288C230.243 111.873 232.639 117.109 236.756 120.375C236.91 120.497 237.125 120.504 237.283 120.386C239.304 118.879 242.935 114.898 243.173 109.464Z" fill="#FFCC00"/>
<path d="M239.322 90.4602C241.228 91.2205 244.22 91.883 245.293 91.8081L238.171 94.3374C236.837 93.8037 236.38 92.5938 237.609 92.7878C238.839 92.9818 238.782 92.9571 237.613 91.7792C236.953 91.114 236.322 89.2635 239.322 90.4602Z" fill="#007AFF"/>
<path d="M250.448 106.176C248.801 105.839 247.585 108.264 247.388 109.56C246.957 111.566 246.955 115.607 248.466 115.912C250.801 116.381 255.784 113.936 256.04 112.414C256.231 111.278 252.507 106.597 250.448 106.176Z" fill="#A2845E"/>
<path d="M250.448 106.176C248.801 105.839 247.585 108.264 247.388 109.56C247.426 110.148 248.064 111.501 250.308 112.207C252.553 112.913 255.065 112.639 256.04 112.414C256.231 111.278 252.507 106.597 250.448 106.176Z" fill="#FFCC00"/>
<circle cx="2.57885" cy="2.57885" r="2.57885" transform="matrix(-1 -2.80188e-09 -2.80188e-09 1 256.734 100.315)" fill="white"/>
<circle cx="2.82062" cy="2.82062" r="2.82062" transform="matrix(-1 -2.80188e-09 -2.80188e-09 1 247.708 99.8319)" fill="white"/>
<ellipse cx="1.32531" cy="1.32576" rx="1.32531" ry="1.32576" transform="matrix(-0.998134 0.0610686 0.0610249 0.998136 255.555 101.443)" fill="black"/>
<ellipse cx="1.44956" cy="1.45005" rx="1.44956" ry="1.45005" transform="matrix(-0.998134 0.0610686 0.0610249 0.998136 246.418 101.065)" fill="black"/>
<path d="M234.406 107.019C231.71 106.526 226.43 107.424 223.134 108.384C222.42 108.393 220.941 109.231 222.942 111.388C224.943 113.545 228.475 114.045 227.136 114.398C225.798 114.752 227.289 117.054 229.869 117.973C232.449 118.892 236.599 119.061 238.507 115.782C240.416 112.504 239.013 107.862 234.406 107.019Z" fill="#007AFF"/>
<ellipse cx="97.4562" cy="182.96" rx="8.91181" ry="8.93127" transform="rotate(11.3009 97.4562 182.96)" fill="#FA90A4"/>
<ellipse cx="82.2717" cy="185.846" rx="12.0309" ry="12.0572" transform="rotate(11.3009 82.2717 185.846)" fill="#FA90A4"/>
<ellipse cx="58.798" cy="161.573" rx="5.94121" ry="5.95418" transform="rotate(11.3009 58.798 161.573)" fill="#FFBDCA"/>
<circle cx="3.38475" cy="3.38475" r="3.38475" transform="matrix(-1 -2.93204e-09 -2.93204e-09 1 62.0345 157.835)" fill="white"/>
<ellipse cx="58.35" cy="160.738" rx="1.29323" ry="1.21981" transform="rotate(11.3009 58.35 160.738)" fill="black"/>
<ellipse cx="66.6597" cy="176.047" rx="17.378" ry="17.416" transform="rotate(11.3009 66.6597 176.047)" fill="#FFBDCA"/>
<path d="M55 177.635C56.4274 179.066 60.3413 181.373 64.5779 179.153" stroke="#821729" stroke-width="1.42682" stroke-linecap="round"/>
<ellipse cx="79.4805" cy="164.188" rx="5.94121" ry="5.95418" transform="rotate(11.3009 79.4805 164.188)" fill="#FFBDCA"/>
<circle cx="3.38475" cy="3.38475" r="3.38475" transform="matrix(-1 -2.93204e-09 -2.93204e-09 1 82.9876 160.575)" fill="white"/>
<ellipse cx="80.1876" cy="163.858" rx="1.48528" ry="1.48853" transform="rotate(11.3009 80.1876 163.858)" fill="black"/>
<path d="M181.285 197.664C181.618 196.887 181.506 194.18 181.364 192.336C181.329 191.889 181.737 191.531 182.174 191.632L182.91 191.802C183.208 191.871 183.419 192.134 183.425 192.44C183.459 194.214 183.652 198.225 184.24 198.813C184.896 199.469 185.553 201.439 184.24 200.618C182.927 199.798 180.3 201.767 180.136 200.618C179.972 199.469 180.793 198.813 181.285 197.664Z" fill="#FF9500"/>
<path d="M190.721 197.664C190.388 196.887 190.5 194.18 190.642 192.336C190.677 191.889 190.269 191.531 189.832 191.632L189.096 191.802C188.798 191.871 188.588 192.134 188.598 192.44C188.653 194.094 188.846 197.496 187.766 198.813C186.555 200.29 186.369 201.449 187.766 200.782C189.142 200.126 191.768 201.603 191.932 200.454C192.096 199.305 191.213 198.813 190.721 197.664Z" fill="#FF9500"/>
<circle cx="186.68" cy="174.03" r="19.6954" fill="black"/>
<ellipse cx="188.485" cy="175.671" rx="13.2944" ry="13.1303" fill="#DBE2E6"/>
<circle cx="179.787" cy="171.075" r="1.31301" fill="black"/>
<circle cx="197.184" cy="171.075" r="1.31301" fill="black"/>
<path d="M180.865 151.159C174.982 152.674 171.627 159.74 170.686 163.083C180.181 162.114 198.798 159.703 197.308 157.811C195.445 155.446 188.219 149.264 180.865 151.159Z" fill="#801D18"/>
<path d="M196.495 155.467C190.495 159.371 175.87 161.075 170.479 161.412C168.153 161.558 166.967 161.708 166.364 166.006C165.885 169.415 169.134 171.002 186.889 166.804C204.644 162.607 202.667 160.057 201.424 157.674C200.181 155.291 197.607 154.74 196.495 155.467Z" fill="#FF3B30"/>
<path d="M179.476 175.343L181.281 176.984" stroke="#FFBDCA" stroke-width="1.59609" stroke-linecap="round"/>
<path d="M194.371 175.014L196.177 176.656" stroke="#FFBDCA" stroke-width="1.59609" stroke-linecap="round"/>
<path d="M182.633 175.343L184.439 176.984" stroke="#FFBDCA" stroke-width="1.59609" stroke-linecap="round"/>
<path d="M197.795 175.014L199.601 176.656" stroke="#FFBDCA" stroke-width="1.59609" stroke-linecap="round"/>
<path d="M169.563 178.467C166.845 183.963 174.515 187.784 178.69 189.007C184.319 190.741 184.144 186.847 181.82 181.769C179.592 176.9 172.96 171.596 169.563 178.467Z" fill="#4C5052"/>
<path d="M203.512 174.654C199.286 172.199 195.546 179.862 194.205 184C192.327 189.582 195.497 189.262 199.807 186.792C203.94 184.423 208.795 177.721 203.512 174.654Z" fill="#4C5052"/>
<path d="M189.53 174.445C188.263 174.186 187.328 176.05 187.177 177.047C186.845 178.589 186.843 181.696 188.005 181.93C189.801 182.292 193.632 180.412 193.829 179.241C193.976 178.368 191.113 174.769 189.53 174.445Z" fill="#804A00"/>
<path d="M189.53 174.445C188.263 174.186 187.328 176.05 187.177 177.047C187.206 177.499 187.696 178.539 189.422 179.082C191.148 179.625 193.079 179.414 193.829 179.241C193.976 178.368 191.113 174.769 189.53 174.445Z" fill="#FF9500"/>
<circle cx="99.6487" cy="160.731" r="6.36632" transform="rotate(3.36692 99.6487 160.731)" fill="#5A8E26"/>
<path d="M102.572 191.307L96.9513 192.442C96.6836 192.496 96.698 192.884 96.9689 192.917C97.5155 192.984 97.9117 193.474 97.8695 194.023C97.8491 194.288 98.0785 194.506 98.3415 194.469L98.5146 194.445C99.13 194.359 99.7278 194.69 99.9793 195.258L100.016 195.341C100.151 195.646 100.541 195.738 100.798 195.525L103.513 193.286C104.108 192.796 104.049 191.868 103.397 191.458C103.152 191.304 102.856 191.25 102.572 191.307Z" fill="#6CA732"/>
<mask id="mask2_1152_13880" style="mask-type:alpha" maskUnits="userSpaceOnUse" x="91" y="156" width="38" height="38">
<circle cx="110.135" cy="174.899" r="18.6215" transform="rotate(3.36692 110.135 174.899)" fill="#79BB38"/>
</mask>
<g mask="url(#mask2_1152_13880)">
<ellipse cx="2.22569" cy="2.23028" rx="2.22569" ry="2.23028" transform="matrix(0.601142 -0.799142 0.802038 0.597273 91.3183 183.087)" fill="#68A42D"/>
</g>
<path d="M103.145 161.469L96.6993 158.347" stroke="#335214" stroke-width="1.42683" stroke-linecap="round" stroke-linejoin="round"/>
<path d="M124.172 191.731L121.017 186.43L115.328 188.879C117.859 190.729 120.912 191.728 124.045 191.731L124.172 191.731Z" fill="#6CA732"/>
<path d="M108.201 192.314L102.339 195.828C102.06 195.996 102.232 196.425 102.55 196.355C103.191 196.213 103.834 196.606 104.007 197.241C104.091 197.546 104.437 197.701 104.718 197.554L104.902 197.458C105.559 197.116 106.365 197.251 106.876 197.789L106.951 197.868C107.225 198.157 107.7 198.105 107.904 197.764L110.056 194.164C110.527 193.376 110.087 192.356 109.189 192.155C108.851 192.079 108.497 192.136 108.201 192.314Z" fill="#6CA732"/>
<path d="M121.309 190.889L113.166 196.337C112.779 196.596 113.054 197.199 113.504 197.075C114.412 196.827 115.358 197.344 115.65 198.239C115.791 198.67 116.296 198.866 116.687 198.637L116.945 198.486C117.861 197.949 119.023 198.084 119.791 198.818L119.904 198.926C120.317 199.32 120.992 199.211 121.26 198.708L124.089 193.404C124.709 192.243 124.009 190.815 122.711 190.591C122.223 190.507 121.72 190.613 121.309 190.889Z" fill="#6CA732"/>
<circle cx="110.135" cy="174.899" r="18.6215" transform="rotate(3.36692 110.135 174.899)" fill="#79BB38"/>
<circle cx="121.986" cy="160.45" r="6.36632" transform="rotate(3.36692 121.986 160.45)" fill="#79BB38"/>
<ellipse cx="4.07687" cy="4.08529" rx="4.07687" ry="4.08529" transform="matrix(0.601142 -0.799142 0.802038 0.597273 117.044 179.4)" fill="#68A42D"/>
<ellipse cx="2.22569" cy="2.23028" rx="2.22569" ry="2.23028" transform="matrix(0.601142 -0.799142 0.802038 0.597273 114.469 185.248)" fill="#68A42D"/>
<ellipse cx="1.58548" cy="1.58875" rx="1.58548" ry="1.58875" transform="matrix(0.601142 -0.799142 0.802038 0.597273 120.343 185.784)" fill="#68A42D"/>
<ellipse cx="1.58548" cy="1.58875" rx="1.58548" ry="1.58875" transform="matrix(0.601142 -0.799142 0.802038 0.597273 100.709 169.816)" fill="#68A42D"/>
<ellipse cx="1.58548" cy="1.58875" rx="1.58548" ry="1.58875" transform="matrix(0.601142 -0.799142 0.802038 0.597273 105.811 169.797)" fill="#68A42D"/>
<path fill-rule="evenodd" clip-rule="evenodd" d="M110.071 177.739C110.729 177.341 111.374 176.866 112.001 176.314C112.053 176.275 112.095 176.243 112.124 176.22L112.16 176.193L112.171 176.184L112.175 176.181L112.177 176.179C112.177 176.179 112.178 176.179 111.401 175.211L112.178 176.179C112.712 175.75 112.797 174.969 112.368 174.435C111.94 173.901 111.16 173.815 110.626 174.243C110.203 174.371 109.747 174.481 109.266 174.573L110.071 177.739ZM108.856 174.646C108.011 174.785 107.102 174.871 106.172 174.905L106.537 179.119C107.604 178.92 108.665 178.531 109.698 177.956L108.856 174.646ZM102.979 174.818C103.892 174.901 104.831 174.934 105.756 174.916L106.126 179.186C105.032 179.341 103.934 179.297 102.856 179.052L102.979 174.818ZM102.565 174.776C101.808 174.693 101.075 174.576 100.389 174.423L99.7299 177.729C100.607 178.286 101.517 178.692 102.444 178.948L102.565 174.776ZM99.1878 174.103C99.4432 174.184 99.7095 174.259 99.9849 174.328L99.3561 177.481C98.7589 177.067 98.1781 176.582 97.6187 176.025C97.6035 176.012 97.5883 175.999 97.5733 175.987L97.5695 175.983L97.5681 175.982L97.5674 175.982C97.5671 175.981 97.9418 175.547 98.0996 175.364L98.0998 175.364L98.0999 175.364L98.1011 175.363L98.1014 175.362C98.1425 175.315 98.1684 175.285 98.1684 175.285L97.5669 175.981C97.0484 175.533 96.991 174.75 97.4388 174.232C97.8864 173.713 98.6688 173.656 99.1878 174.103Z" fill="white"/>
<path d="M123.034 157.452L118.751 161.54L125.854 160.616" stroke="#335214" stroke-width="1.42682" stroke-linecap="round" stroke-linejoin="round"/>
<path d="M172.132 183.557C170.663 187.875 156.408 197.629 144.32 193.514C132.231 189.4 125.084 178.271 128.356 168.657C131.629 159.044 144.081 154.586 156.169 158.7C168.257 162.815 175.404 173.944 172.132 183.557Z" fill="#FF9500"/>
<path d="M122.236 172.259C122.236 186.762 133.993 198.518 148.495 198.518C158.743 198.518 167.619 192.648 171.946 184.087C166.356 190.711 138.205 189.41 128.86 180.066C147.502 177.889 169.905 169.539 172.611 161.85C168.58 152.525 159.3 146 148.495 146C133.993 146 122.236 157.757 122.236 172.259Z" fill="#FFCC00"/>
<ellipse cx="163.723" cy="155.823" rx="3.01493" ry="3.59847" transform="rotate(-42.6451 163.723 155.823)" fill="white"/>
<path d="M133.076 165.22L139.894 167.186L133.076 171.273" stroke="#804A00" stroke-width="1.72191" stroke-linecap="round" stroke-linejoin="round"/>
<path d="M164.259 157.74C164.802 157.494 164.981 156.72 164.66 156.011C164.58 155.835 164.476 155.679 164.358 155.548L163.932 156.027L164.008 155.26C163.712 155.086 163.382 155.043 163.095 155.172C162.552 155.418 162.373 156.193 162.695 156.902C163.016 157.611 163.717 157.986 164.259 157.74Z" fill="black"/>
</g>
<defs>
<clipPath id="clip0_1152_13880">
<rect width="320" height="200" fill="white"/>
</clipPath>
</defs>
</svg>
