<svg width="101" height="100" viewBox="0 0 101 100" fill="none" xmlns="http://www.w3.org/2000/svg">
<g clip-path="url(#clip0_1152_15170)">
<path d="M38.5 42C38.1667 41.8333 37.25 41.5 36.25 41.5" stroke="black" stroke-linecap="round"/>
<path d="M34.75 15.5C16.1387 15.5 1 30.6387 1 49.25C1 67.8613 16.1387 83 34.75 83C53.3613 83 68.5 67.8613 68.5 49.25C68.5543 30.6387 53.4156 15.5 34.75 15.5ZM34.75 70.0318C23.3553 70.0318 14.0225 60.699 14.0225 49.25C14.0225 37.8553 23.3553 28.5225 34.75 28.5225C46.199 28.5225 55.4775 37.8553 55.4775 49.25C55.5318 60.699 46.199 70.0318 34.75 70.0318ZM34.75 39.1576C29.2154 39.1576 24.6576 43.7154 24.6576 49.25C24.6576 54.8388 29.1612 59.3424 34.75 59.3424C40.3388 59.3424 44.8424 54.8388 44.8424 49.25C44.8967 43.7154 40.3388 39.1576 34.75 39.1576Z" fill="#FFCC00"/>
<path d="M42.0828 47.3391C42.0828 47.3391 40.7557 46.8088 38.885 47.3391C37.2816 47.7937 36.738 48.8543 36.738 48.8543" stroke="black" stroke-linecap="round"/>
<circle cx="13.25" cy="39.75" r="1.25" fill="black"/>
<circle cx="55.75" cy="36.25" r="1.25" fill="black"/>
<path d="M32.75 59.7499C33 58.1666 32.85 53.2999 32.25 52.4999C31.5 51.4999 29 49.9999 30 49.2499C31 48.4999 33.75 50.4999 37 50.4999C40.25 50.4999 46.25 47.7499 47.5 48.7499C48.75 49.7499 46.5 50.9999 45.5 51.4999C44.7624 51.8687 43 52.3333 42.25 52.4999C43.3333 52.5833 45.5 52.9999 45.5 53.9999C45.5 54.4999 45.1667 55.3333 45 55.2499M45 55.2499C44.3692 54.7931 43.5924 54.4474 43 54.2499M45 55.2499C45.9664 55.9499 46.5971 56.9108 45.75 57.9999C44.35 59.7999 42.85 59.1328 42.5166 58.7162M42.5166 58.7162C42.0709 58.9286 41.5752 58.9999 41.25 58.9999M42.5166 58.7162C42.9847 58.4931 43.3976 58.1146 43.5 57.4999M42.5166 58.7162C42.6777 60.0608 43 63.2999 43 65.4999C43 68.2499 42.25 70.9999 36.5 73.2499C31.9 75.0499 26.9167 72.1666 25 70.4999" stroke="black" stroke-linecap="round" stroke-linejoin="round"/>
<path d="M52 29.25C52.4111 28.8333 53.4867 28 54.5 28" stroke="black" stroke-linecap="round" stroke-linejoin="round"/>
<path d="M25 79.7703L26.7697 94.0405L25 95.5H35.8708M46.9944 80.4189L45.4775 94.2027L47.5 95.5H35.8708M35.8708 80.4189V95.5" stroke="black" stroke-linecap="round" stroke-linejoin="round"/>
<path d="M14.75 36.5C14.4167 36.3333 13.5 36 12.5 36" stroke="black" stroke-linecap="round"/>
<path d="M82.75 14V94.25" stroke="black" stroke-linecap="round" stroke-linejoin="round"/>
<path d="M71.25 19.5L65.5 24.75L72.5 29L94.25 27.75V19.5H71.25Z" fill="#00ACFF"/>
<path d="M70.25 43V35L93.5 33.75L100.25 40L93.5 44.25L70.25 43Z" fill="#00ACFF"/>
</g>
<defs>
<clipPath id="clip0_1152_15170">
<rect width="100" height="100" fill="white" transform="translate(0.5)"/>
</clipPath>
</defs>
</svg>
