<svg width="200" height="200" viewBox="0 0 200 200" fill="none" xmlns="http://www.w3.org/2000/svg">
<path d="M99.3839 30C61.4475 30 30.5896 60.8579 30.5896 98.7943C30.5896 136.731 61.4475 167.589 99.3839 167.589C137.32 167.589 168.178 136.731 168.178 98.7943C168.289 60.8579 137.431 30 99.3839 30ZM99.3839 141.155C76.1575 141.155 57.134 122.131 57.134 98.7943C57.134 75.5679 76.1575 56.5444 99.3839 56.5444C122.721 56.5444 141.634 75.5679 141.634 98.7943C141.744 122.131 122.721 141.155 99.3839 141.155ZM99.3839 78.2224C88.1025 78.2224 78.8119 87.5129 78.8119 98.7943C78.8119 110.186 87.9919 119.366 99.3839 119.366C110.776 119.366 119.956 110.186 119.956 98.7943C120.066 87.5129 110.776 78.2224 99.3839 78.2224Z" fill="#FFCC00"/>
<path d="M88.6824 106.438C88.6824 106.438 92.6068 110.514 100.454 110.514C107.181 110.514 111.104 106.438 111.104 106.438" stroke="black" stroke-width="2.22222" stroke-linecap="round"/>
<ellipse cx="146.266" cy="74.3338" rx="2.54793" ry="2.54794" fill="black"/>
<path d="M36.0075 127C31.444 122.484 5.00012 109.061 5 99.8053C4.99988 90.1556 15.7448 84.8938 20.1696 76.7617C25.8069 66.4011 29.4438 62.4163 32.6652 60.0254C35.8294 57.6769 38.3025 56.0406 39.9131 57.6345C41.2017 58.9097 37.0813 64.0102 36.0075 66.4011C38.9604 64.2759 45.0133 62.1678 48.8928 61.6193C54.5301 60.8224 59.2411 61.7818 59.2411 64.1727C59.2411 66.5636 47.2957 68.2109 47.2957 68.2109C47.2957 68.2109 62.5834 65.6041 62.5834 69.589C62.5834 73.5738 48.8928 74.5332 48.8928 74.5332C48.8928 74.5332 62.8519 74.5332 62.0466 77.7211C61.2413 80.909 45.6715 82.3404 45.6715 82.3404C45.6715 82.3404 60.0464 80.909 59.2411 84.0968C58.4358 87.2847 48.0338 87.1253 43.524 89.6756C37.8867 92.8634 29.5 98.3121 29.5 101.5" stroke="black" stroke-width="2.22222" stroke-linecap="round" stroke-linejoin="round"/>
<path d="M162.573 126.312C174.293 120.197 199.263 104.909 197.225 95.7367C195.131 86.3168 193.613 85.4114 189.189 77.2793C183.551 66.9188 179.914 63.9852 176.693 61.5943C173.529 59.2458 168.77 60.5099 167.159 62.1039C165.87 63.379 172.277 64.5279 173.351 66.9188C170.398 64.7935 164.345 61.0915 160.465 60.5431C154.828 59.7461 151.871 59.2035 151.871 61.5944C151.871 63.9853 163.687 68.5127 163.687 68.5127C163.687 68.5127 148.304 62.1958 148.304 66.1807C148.304 70.1655 163.687 77.2793 163.687 77.2793C163.687 77.2793 146.479 78.2804 147.284 81.4683C148.09 84.6561 163.687 82.8581 163.687 82.8581C163.687 82.8581 149.537 84.905 150.342 88.0929C151.147 91.2808 161.63 87.0714 166.14 89.6217C170.279 91.9622 172.227 93.0634 174.293 94.8952M176.693 97.2655C175.805 96.3173 175.041 95.5584 174.293 94.8952M174.293 94.8952L167.669 99.3038" stroke="black" stroke-width="2.22222" stroke-linecap="round" stroke-linejoin="round"/>
<path d="M74.4141 157.397L78.0213 186.485L74.4141 189.46H96.5725M119.246 158.719L116.154 186.815L120.277 189.46H96.5725M96.5725 158.719V189.46" stroke="black" stroke-width="2.22222" stroke-linecap="round" stroke-linejoin="round"/>
</svg>
