<svg width="222" height="180" viewBox="0 0 222 180" fill="none" xmlns="http://www.w3.org/2000/svg">
<mask id="mask0_1152_15192" style="mask-type:alpha" maskUnits="userSpaceOnUse" x="161" y="94" width="56" height="57">
<ellipse cx="189.029" cy="122.388" rx="27.9335" ry="28.0246" fill="#79BB38"/>
</mask>
<g mask="url(#mask0_1152_15192)">
<ellipse cx="3.34624" cy="3.34887" rx="3.34624" ry="3.34887" transform="matrix(0.551921 -0.833897 0.83491 0.550387 161.573 136.353)" fill="#68A42D"/>
</g>
<ellipse cx="189.029" cy="122.388" rx="27.9335" ry="28.0246" fill="#FFD599"/>
<circle cx="4.41698" cy="4.41698" r="4.41698" transform="matrix(-1 -2.93204e-09 -2.93204e-09 1 206.077 117.177)" fill="white"/>
<ellipse cx="200.73" cy="122.697" rx="2.37158" ry="2.37676" transform="rotate(11.3009 200.73 122.697)" fill="black"/>
<circle cx="4.73248" cy="4.73248" r="4.73248" transform="matrix(-1 -2.93204e-09 -2.93204e-09 1 192.337 113.03)" fill="white"/>
<ellipse cx="186.608" cy="118.943" rx="2.54098" ry="2.54653" transform="rotate(11.3009 186.608 118.943)" fill="black"/>
<path d="M175.208 146.693C179.733 143.651 175.31 139.405 172.533 137.662C171.068 139.557 165.435 141.378 161.593 140.103C156.79 138.509 155.587 133.038 150.853 136.039C146.119 139.04 150.483 141.203 155.772 145.291C161.061 149.38 169.553 150.495 175.208 146.693Z" fill="#FFD599"/>
<path d="M150.853 136.039C146.119 139.04 150.483 141.202 155.772 145.291C156.797 143.964 160.888 145.31 162.059 143.794C162.997 142.581 162.139 140.828 161.593 140.103C156.79 138.509 155.587 133.038 150.853 136.039Z" fill="#FF9500"/>
<path d="M185.986 149.713C188.719 152.356 179.579 152.844 177.107 151.856C168.424 148.296 178.856 136.88 178.856 136.88C180.282 136.232 182.491 136.99 183.134 139.084C183.983 141.85 182.097 145.954 185.986 149.713Z" fill="#FF9500"/>
<path d="M192.381 149.713C189.648 152.356 198.788 152.844 201.26 151.856C209.943 148.296 199.511 136.88 199.511 136.88C198.085 136.232 195.876 136.99 195.233 139.084C194.384 141.85 196.27 145.954 192.381 149.713Z" fill="#FF9500"/>
<circle cx="1.94435" cy="1.94435" r="1.94435" transform="matrix(-0.998438 -0.0558703 -0.0558703 0.998438 196.503 121.781)" fill="#FF9500"/>
<circle cx="4.01833" cy="4.01833" r="4.01833" transform="matrix(-0.998438 -0.0558703 -0.0558703 0.998438 201.046 124.112)" fill="#FFEB99"/>
<circle cx="4.66644" cy="4.66644" r="4.66644" transform="matrix(-0.998438 -0.0558703 -0.0558703 0.998438 194.432 121.665)" fill="#FFEB99"/>
<path d="M188.866 87.5603C189.991 89.3277 191.105 92.7019 190.794 96.2368C190.652 97.8435 190.312 98.1649 188.384 98.1649C180.676 98.1649 175.697 100.575 173.77 101.539C171.842 102.503 172.485 101.057 172.806 99.611C173.413 96.8795 177.303 89.0063 185.975 86.5962C187.36 86.2116 188.288 86.6509 188.866 87.5603Z" fill="#FFD599"/>
<path d="M187.453 89.1073C188.165 90.2384 188.872 92.3976 188.674 94.6597C188.584 95.6879 188.589 95.5993 187.453 96.0489C183.523 97.6044 179.893 98.0528 177.884 98.0528C176.516 98.0528 177.07 97.7443 177.274 96.8189C177.658 95.0709 180.124 90.0327 185.621 88.4904C186.498 88.2443 187.086 88.5254 187.453 89.1073Z" fill="#FF9500"/>
<path d="M202.588 90.724C201.113 91.8424 199.151 94.2951 198.321 97.3198C197.944 98.6947 198.127 99.0656 199.724 99.6587C206.111 102.031 209.495 105.56 210.795 106.952C212.095 108.344 212.008 106.948 212.187 105.651C212.525 103.201 211.724 95.4806 205.28 90.8148C204.252 90.0702 203.347 90.1486 202.588 90.724Z" fill="#FFD599"/>
<path d="M203.284 92.4408C202.345 93.1586 201.095 94.7302 200.563 96.6652C200.321 97.5448 200.345 97.4702 201.148 98.1922C203.925 100.69 206.794 102.179 208.459 102.797C209.593 103.218 209.228 102.792 209.344 101.963C209.564 100.396 209.071 95.4628 204.992 92.4934C204.341 92.0195 203.767 92.0714 203.284 92.4408Z" fill="#FF9500"/>
<mask id="mask1_1152_15192" style="mask-type:alpha" maskUnits="userSpaceOnUse" x="161" y="94" width="56" height="57">
<ellipse cx="189.029" cy="122.388" rx="27.9335" ry="28.0246" fill="#FFD599"/>
</mask>
<g mask="url(#mask1_1152_15192)">
<path d="M177.488 125.084C169.553 129.281 167.639 136.097 166.18 139.887C161.527 137.177 156.888 121.399 162.037 116.819C167.185 112.238 172.636 111.727 177.488 112.15C167.085 117.682 163.89 127.887 163.817 128.727C166.601 125.914 171.338 125.084 177.488 125.084Z" fill="#FF9500"/>
<path d="M209.472 128.258C213.527 131.548 213.849 135.654 214.254 137.981C217.214 136.96 221.643 128.481 219.222 125.286C216.802 122.091 213.749 121.184 210.933 120.878C216.244 125.209 216.915 131.392 216.862 131.88C215.591 129.961 212.982 128.952 209.472 128.258Z" fill="#FF9500"/>
</g>
<ellipse cx="14.3342" cy="14.3655" rx="14.3342" ry="14.3655" transform="matrix(-0.980612 0.195961 0.195961 0.980612 76.3616 83.7833)" fill="#FA90A4"/>
<ellipse cx="19.3511" cy="19.3934" rx="19.3511" ry="19.3934" transform="matrix(-0.980612 0.195961 0.195961 0.980612 104.719 82.5112)" fill="#FA90A4"/>
<ellipse opacity="0.5" cx="9.55612" cy="9.57698" rx="9.55612" ry="9.57698" transform="matrix(-0.980612 0.195961 0.195961 0.980612 134.794 55.015)" fill="#FF2D55"/>
<circle cx="127.538" cy="65.7115" r="5.44418" fill="white"/>
<ellipse cx="2.08009" cy="1.962" rx="2.08009" ry="1.962" transform="matrix(-0.980612 0.195961 0.195961 0.980612 129.676 62.6044)" fill="black"/>
<ellipse cx="27.9516" cy="28.0127" rx="27.9516" ry="28.0127" transform="matrix(-0.980612 0.195961 0.195961 0.980612 136.575 56.6124)" fill="#FFBDCA"/>
<path d="M99.6774 90.5063C101.973 92.8076 108.269 96.5176 115.083 92.9479" stroke="#821729" stroke-width="2.29497" stroke-linecap="round"/>
<ellipse cx="9.55612" cy="9.57698" rx="9.55612" ry="9.57698" transform="matrix(-0.980612 0.195961 0.195961 0.980612 101.527 59.2216)" fill="#FFBDCA"/>
<circle cx="93.8365" cy="70.1186" r="5.44418" fill="white"/>
<ellipse cx="2.389" cy="2.39422" rx="2.389" ry="2.39422" transform="matrix(-0.980612 0.195961 0.195961 0.980612 94.7695 67.1381)" fill="black"/>
<path d="M157.767 17.7969C153.479 19.4951 157.154 30.185 158.642 34.3133C162.913 33.0435 172.026 29.5543 174.307 25.7562C177.158 21.0087 178.395 12.3093 174.065 11.6282C169.736 10.9472 168.832 16.142 167.528 16.5662C166.225 16.9903 167.097 11.0554 164.307 12.4255C161.697 13.7073 163.858 18.4306 161.874 19.3336C161.195 19.6425 159.38 17.1582 157.767 17.7969Z" fill="#51422F"/>
<circle cx="183.672" cy="32.0686" r="8.66863" transform="rotate(0.40864 183.672 32.0686)" fill="#A2845E"/>
<circle cx="183.871" cy="31.6862" r="5.44418" fill="white"/>
<ellipse cx="184.559" cy="31.0104" rx="1.88691" ry="1.77591" transform="rotate(0.40864 184.559 31.0104)" fill="black"/>
<circle cx="168.154" cy="50.3792" r="25.3557" transform="rotate(0.40864 168.154 50.3792)" fill="#A2845E"/>
<circle cx="153.348" cy="29.6849" r="8.66863" transform="rotate(0.40864 153.348 29.6849)" fill="#A2845E"/>
<circle cx="153.28" cy="29.8714" r="5.44418" fill="white"/>
<circle cx="153.472" cy="29.783" r="2.16713" transform="rotate(0.40864 153.472 29.783)" fill="black"/>
<ellipse cx="164.894" cy="41.5353" rx="1.17286" ry="1.44561" transform="rotate(15.1726 164.894 41.5353)" fill="#51422F"/>
<ellipse cx="172.534" cy="41.9212" rx="1.17286" ry="1.44561" transform="rotate(-11.9975 172.534 41.9212)" fill="#51422F"/>
<path d="M139.654 38.1288C140.095 42.0187 144.322 43.1531 146.801 44.4767C146.704 45.2441 146.316 46.5933 145.547 45.8504C144.586 44.9217 143.392 44.3862 141.453 44.8072C139.513 45.2282 139.345 47.5622 138.805 47.7381C138.264 47.914 137.39 45.7922 134.34 46.8305C131.491 47.8007 132.031 51.3171 131.472 51.4062C130.914 51.4952 130.425 48.6005 126.918 49.2668C123.41 49.9332 123.304 53.9104 122.813 53.9844C121.936 54.1164 121.758 40.6182 130.54 35.7159C135.386 33.0107 138.919 31.6444 139.654 38.1288Z" fill="#A2845E"/>
<path d="M194.146 40.2937C193.742 44.2129 190.34 45.303 188.336 46.6065C188.404 47.3822 188.697 48.7485 189.323 48.0088C190.106 47.0842 191.069 46.5593 192.618 47.0091C194.168 47.459 194.272 49.8162 194.703 50.0006C195.134 50.1851 195.862 48.0555 198.293 49.1425C200.564 50.1583 200.085 53.6995 200.532 53.7965C200.979 53.8936 201.408 50.979 204.21 51.6967C207.013 52.4143 207.046 56.4288 207.439 56.5099C208.14 56.6544 208.457 43.0366 201.482 37.9767C197.633 35.1844 194.819 33.7602 194.146 40.2937Z" fill="#A2845E"/>
<path d="M145.355 72.0022C147.855 70.5035 148.762 67.0665 149.99 65.2035L156.195 68.6784C155.368 70.0682 153.604 72.4726 151.631 72.6102C150.13 72.715 148.49 72.6032 148.442 73.1941C148.402 73.6928 154.623 79.1149 155.721 82.3666C156.761 85.4447 155.692 86.4121 155.109 86.408C153.843 86.3989 153.027 80.9473 152.039 81.2403C151.515 81.3956 152.128 85.1154 150.62 85.0543C150.004 85.0294 150.299 80.9706 148.973 80.9612C148.431 80.9573 148.406 82.3104 148.266 82.9748C148.126 83.6393 147.173 84.1492 147.179 83.2373C147.193 81.3085 147.752 78.9302 145.33 75.4149C143.804 73.198 144.31 72.6286 145.355 72.0022Z" fill="#A2845E"/>
<path d="M175.745 73.8769C177.299 72.6769 177.866 69.9311 178.631 68.4418L182.272 67.3842C181.757 68.4951 182.506 73.9251 179.64 74.3545C178.715 74.4932 177.691 74.3529 177.66 74.8248C177.635 75.2231 181.489 79.5451 182.167 82.1405C182.808 84.5972 182.144 85.3711 181.782 85.3685C180.996 85.3629 180.496 81.0105 179.882 81.2457C179.557 81.3704 179.933 84.3401 178.997 84.2932C178.615 84.2741 178.803 81.0325 177.98 81.0267C177.643 81.0243 177.626 82.1048 177.538 82.6356C177.45 83.1664 176.858 83.5748 176.863 82.8466C176.874 81.3063 177.224 79.4063 175.726 76.6022C174.781 74.8338 175.096 74.3785 175.745 73.8769Z" fill="#A2845E"/>
<path d="M157.404 52.6863C157.698 54.1251 157.166 55.4089 156.736 56.4457C156.341 57.4012 156.032 58.1469 156.536 58.611C157.376 59.3847 160.274 56.5009 161.121 54.4791L157.404 52.6863Z" fill="white"/>
<path d="M163.679 70.6312C163.891 66.8326 161.791 65.1737 160.456 63.7333C157.588 61.9222 156.756 61.9703 156.905 64.2856C157.003 64.4284 157.262 64.9881 157.516 66.0845C157.834 67.4551 156.864 68.7629 157.185 68.9842C158.156 69.4861 158.322 67.3876 158.737 67.4331C159.734 67.5421 158.814 70.6123 159.332 70.7816C160.411 71.1343 160.465 68.198 160.944 68.2146C161.511 68.3456 161.879 69.7124 161.842 70.8558C161.56 73.4787 163.602 72.004 163.679 70.6312Z" fill="#51422F"/>
<path d="M172.65 70.6952C172.492 66.8939 174.616 65.2651 175.971 63.8439C179.189 61.7626 179.996 61.887 179.514 64.4468C179.415 64.5882 179.147 65.1441 178.877 66.2368C178.54 67.6028 179.491 68.9242 179.167 69.141C178.189 69.6289 178.053 67.5283 177.637 67.5678C176.639 67.6626 177.515 70.7456 176.995 70.9075C175.91 71.2448 175.899 68.308 175.419 68.3178C174.851 68.4407 174.463 69.8021 174.484 70.9459C174.728 73.5725 172.707 72.0689 172.65 70.6952Z" fill="#51422F"/>
<path d="M171.372 54.9533C170.064 56.0276 165.713 56.419 162.484 55.3234C159.256 54.2278 157.952 52.6904 157.952 52.6904M157.952 52.6904C158.648 52.3486 158.826 51.6853 158.828 51.3963M157.952 52.6904C157.082 53.1176 156.218 52.678 156.218 52.678" stroke="#51422F" stroke-width="2.29497" stroke-linecap="round" stroke-linejoin="round"/>
<path d="M128.225 157.495C128.704 156.378 128.542 152.485 128.337 149.834C128.288 149.191 128.875 148.677 129.503 148.822L130.561 149.066C130.989 149.165 131.293 149.544 131.301 149.984C131.35 152.535 131.627 158.302 132.473 159.147C133.417 160.091 134.361 162.923 132.473 161.743C130.585 160.563 126.809 163.395 126.573 161.743C126.337 160.091 127.517 159.147 128.225 157.495Z" fill="#FF9500"/>
<path d="M141.792 157.495C141.313 156.378 141.475 152.485 141.679 149.834C141.729 149.191 141.142 148.677 140.514 148.822L139.456 149.066C139.027 149.165 138.726 149.544 138.74 149.984C138.819 152.362 139.096 157.254 137.544 159.147C135.802 161.271 135.535 162.938 137.544 161.979C139.522 161.035 143.298 163.159 143.534 161.507C143.77 159.855 142.5 159.147 141.792 157.495Z" fill="#FF9500"/>
<circle cx="135.982" cy="123.512" r="28.3195" fill="black"/>
<ellipse cx="138.578" cy="125.872" rx="19.1156" ry="18.8796" fill="#DBE2E6"/>
<circle cx="126.07" cy="119.264" r="1.88794" fill="black"/>
<circle cx="151.086" cy="119.264" r="1.88794" fill="black"/>
<path d="M127.62 90.6266C119.161 92.8058 114.338 102.965 112.984 107.772C126.637 106.379 153.407 102.912 151.264 100.192C148.585 96.7911 138.194 87.9026 127.62 90.6266Z" fill="#801D18"/>
<path d="M150.095 96.8219C141.467 102.435 120.438 104.885 112.687 105.37C109.343 105.579 107.637 105.795 106.77 111.975C106.082 116.877 110.752 119.159 136.282 113.123C161.812 107.088 158.969 103.422 157.182 99.9946C155.394 96.5676 151.694 95.776 150.095 96.8219Z" fill="#FF3B30"/>
<path d="M125.623 125.4L128.219 127.76" stroke="#FFBDCA" stroke-width="2.29497" stroke-linecap="round"/>
<path d="M147.041 124.928L149.637 127.288" stroke="#FFBDCA" stroke-width="2.29497" stroke-linecap="round"/>
<path d="M130.164 125.4L132.759 127.76" stroke="#FFBDCA" stroke-width="2.29497" stroke-linecap="round"/>
<path d="M151.964 124.928L154.56 127.288" stroke="#FFBDCA" stroke-width="2.29497" stroke-linecap="round"/>
<path d="M111.37 129.892C107.462 137.796 118.49 143.289 124.493 145.047C132.587 147.541 132.335 141.941 128.994 134.64C125.791 127.639 116.254 120.013 111.37 129.892Z" fill="#4C5052"/>
<path d="M160.184 124.409C154.107 120.881 148.73 131.898 146.801 137.847C144.101 145.875 148.66 145.415 154.857 141.863C160.8 138.457 167.78 128.82 160.184 124.409Z" fill="#4C5052"/>
<path d="M140.079 124.109C138.258 123.736 136.913 126.417 136.696 127.851C136.219 130.068 136.216 134.536 137.887 134.872C140.469 135.392 145.978 132.688 146.261 131.006C146.472 129.75 142.355 124.575 140.079 124.109Z" fill="#804A00"/>
<path d="M140.079 124.109C138.258 123.736 136.913 126.417 136.696 127.851C136.738 128.501 137.443 129.996 139.924 130.776C142.406 131.557 145.183 131.255 146.261 131.006C146.472 129.75 142.355 124.575 140.079 124.109Z" fill="#FF9500"/>
<path d="M47.1394 22.1412C42.803 21.3482 34.3104 22.7926 29.0087 24.3362C27.8613 24.3512 25.4824 25.6991 28.7005 29.1686C31.9185 32.6382 37.5996 33.4419 35.4468 34.0103C33.294 34.5786 35.6924 38.2825 39.8422 39.7604C43.9921 41.2383 50.6662 41.51 53.7365 36.2363C56.8067 30.9627 54.5491 23.4963 47.1394 22.1412Z" fill="#003D80"/>
<path d="M74.9855 53.4006L70.7778 48.4187L68.5917 49.199L74.7281 56.4643C75.78 57.7098 71.6623 62.9688 71.5336 64.5006C71.4048 66.0325 72.6011 66.0336 73.3518 65.0723C74.0207 64.2157 74.1021 61.6182 74.8678 61.6826C75.6335 61.747 74.8316 63.7574 74.916 65.2923C74.9763 66.39 75.8838 67.0222 76.9213 66.1452C77.9589 65.2683 77.612 61.1421 78.4277 58.3181C79.2433 55.4942 82.2119 53.3264 81.0078 52.1931C80.3305 51.5557 78.0917 53.6235 77.5575 54.3412C76.5602 55.681 75.7989 54.2568 74.9855 53.4006Z" fill="#804A00"/>
<path d="M67.3899 56.6184L64.7457 51.3823L62.1446 52.5134C63.3981 54.4186 65.9846 58.66 66.3024 60.3836C66.6996 62.5382 62.4565 66.2623 62.07 67.1626C61.5907 68.2793 63.0898 68.7911 63.7767 67.499C64.5526 66.0395 66.1881 64.0379 66.7462 64.2777C67.3044 64.5175 66.0593 65.5698 65.8984 67.4846C65.7375 69.3994 67.716 68.7945 68.2276 67.2948C68.5998 66.2036 69.476 61.6147 70.1629 60.3227C70.8498 59.0306 72.653 58.2181 72.8606 58.0427C73.0681 57.8673 73.9305 57.3818 73.3721 56.543C73.0134 56.0042 72.2699 56.2994 71.8689 56.5507C71.3263 56.8907 70.1965 57.5959 69.7513 57.824C68.6837 58.371 68.0017 57.9257 67.3899 56.6184Z" fill="#804A00"/>
<ellipse cx="63.4461" cy="28.2661" rx="25.5071" ry="25.5158" transform="rotate(-0.216182 63.4461 28.2661)" fill="#007AFF"/>
<path d="M69.2369 31.3071C68.846 22.3726 81.676 23.7041 88.5734 25.5842C88.8579 25.6617 89.0628 25.9049 89.0935 26.1981C90.0345 35.1819 86.1794 43.6029 79.5588 48.8562C79.3103 49.0534 78.964 49.0644 78.7097 48.8748C75.459 46.4508 69.6193 40.0466 69.2369 31.3071Z" fill="#FFCC00"/>
<path d="M75.4313 0.74025C72.3656 1.96321 67.552 3.02872 65.8263 2.90833L77.2815 6.97655C79.4277 6.11811 80.1631 4.17208 78.1854 4.4841C76.2077 4.79611 76.2996 4.7563 78.1793 2.86172C79.2408 1.79179 80.2564 -1.18465 75.4313 0.74025Z" fill="#007AFF"/>
<path d="M57.5345 26.0184C60.1839 25.4764 62.1406 29.3765 62.4566 31.4621C63.1501 34.6877 63.154 41.1883 60.7233 41.6774C56.9668 42.4333 48.9521 38.5003 48.5408 36.0525C48.2338 34.225 54.2227 26.696 57.5345 26.0184Z" fill="#A2845E"/>
<path d="M57.5345 26.0184C60.1839 25.4764 62.1406 29.3765 62.4566 31.4621C62.3952 32.4077 61.3697 34.5829 57.7597 35.7185C54.1496 36.8541 50.1096 36.4143 48.5408 36.0525C48.2338 34.225 54.2227 26.696 57.5345 26.0184Z" fill="#FFCC00"/>
<circle cx="51.5732" cy="20.7397" r="4.14795" fill="white"/>
<circle cx="66.4799" cy="20.3509" r="4.53682" fill="white"/>
<ellipse cx="2.13169" cy="2.13241" rx="2.13169" ry="2.13241" transform="matrix(0.998134 0.0610686 -0.0610249 0.998136 49.3213 18.4053)" fill="black"/>
<ellipse cx="2.33154" cy="2.33233" rx="2.33154" ry="2.33233" transform="matrix(0.998134 0.0610686 -0.0610249 0.998136 64.0168 17.7975)" fill="black"/>
<path d="M83.338 27.3745C87.6744 26.5815 96.167 28.0259 101.469 29.5695C102.616 29.5845 104.995 30.9324 101.777 34.4019C98.5589 37.8715 92.8778 38.6752 95.0306 39.2435C97.1834 39.8119 94.785 43.5158 90.6352 44.9937C86.4853 46.4716 79.8113 46.7432 76.741 41.4696C73.6707 36.196 75.9283 28.7296 83.338 27.3745Z" fill="#007AFF"/>
<circle cx="26.866" cy="84.0114" r="10.2399" transform="rotate(3.36692 26.866 84.0114)" fill="#5A8E26"/>
<path d="M31.5678 133.192L22.5273 135.018C22.0968 135.105 22.1199 135.727 22.5556 135.781C23.4348 135.89 24.0721 136.678 24.0041 137.561C23.9714 137.987 24.3403 138.338 24.7634 138.278L25.0418 138.239C26.0317 138.1 26.9931 138.634 27.3978 139.547L27.4573 139.681C27.6746 140.171 28.3004 140.319 28.7148 139.977L33.0821 136.375C34.0386 135.586 33.9438 134.094 32.8952 133.435C32.5004 133.187 32.0252 133.1 31.5678 133.192Z" fill="#6CA732"/>
<mask id="mask2_1152_15192" style="mask-type:alpha" maskUnits="userSpaceOnUse" x="13" y="76" width="61" height="61">
<circle cx="43.7327" cy="106.801" r="29.9517" transform="rotate(3.36692 43.7327 106.801)" fill="#79BB38"/>
</mask>
<g mask="url(#mask2_1152_15192)">
<ellipse cx="3.5799" cy="3.58729" rx="3.5799" ry="3.58729" transform="matrix(0.601142 -0.799142 0.802038 0.597273 13.467 119.971)" fill="#68A42D"/>
</g>
<path d="M32.4894 85.1997L22.122 80.1773" stroke="#335214" stroke-width="2.29497" stroke-linecap="round" stroke-linejoin="round"/>
<path d="M66.3112 133.874L61.235 125.347L52.0852 129.286C56.1569 132.262 61.0675 133.868 66.1064 133.874L66.3112 133.874Z" fill="#6CA732"/>
<path d="M40.6211 134.811L31.1928 140.464C30.7438 140.733 31.0204 141.424 31.5318 141.311C32.564 141.083 33.5978 141.716 33.8765 142.736C34.0109 143.228 34.5671 143.476 35.0189 143.24L35.3158 143.085C36.3725 142.535 37.668 142.752 38.49 143.618L38.6111 143.745C39.0527 144.21 39.8155 144.127 40.1438 143.577L43.6048 137.787C44.3625 136.519 43.6556 134.88 42.2117 134.556C41.6679 134.434 41.0984 134.525 40.6211 134.811Z" fill="#6CA732"/>
<path d="M61.7047 132.519L48.6084 141.282C47.9848 141.699 48.428 142.668 49.1517 142.47C50.612 142.07 52.1341 142.901 52.6034 144.341C52.8297 145.035 53.642 145.35 54.2718 144.981L54.6865 144.738C56.1602 143.875 58.0282 144.093 59.2642 145.272L59.4458 145.446C60.1097 146.08 61.1949 145.906 61.6266 145.096L66.1767 136.565C67.1733 134.697 66.0486 132.4 63.9608 132.04C63.175 131.905 62.3673 132.076 61.7047 132.519Z" fill="#6CA732"/>
<circle cx="43.7327" cy="106.801" r="29.9517" transform="rotate(3.36692 43.7327 106.801)" fill="#79BB38"/>
<circle cx="62.7943" cy="83.5604" r="10.2399" transform="rotate(3.36692 62.7943 83.5604)" fill="#79BB38"/>
<ellipse cx="6.55744" cy="6.57097" rx="6.55744" ry="6.57097" transform="matrix(0.601142 -0.799142 0.802038 0.597273 54.8459 114.04)" fill="#68A42D"/>
<ellipse cx="3.5799" cy="3.58729" rx="3.5799" ry="3.58729" transform="matrix(0.601142 -0.799142 0.802038 0.597273 50.703 123.446)" fill="#68A42D"/>
<ellipse cx="2.55016" cy="2.55542" rx="2.55016" ry="2.55542" transform="matrix(0.601142 -0.799142 0.802038 0.597273 60.1515 124.308)" fill="#68A42D"/>
<ellipse cx="2.55016" cy="2.55542" rx="2.55016" ry="2.55542" transform="matrix(0.601142 -0.799142 0.802038 0.597273 28.5709 98.6248)" fill="#68A42D"/>
<ellipse cx="2.55016" cy="2.55542" rx="2.55016" ry="2.55542" transform="matrix(0.601142 -0.799142 0.802038 0.597273 36.7783 98.5947)" fill="#68A42D"/>
<path fill-rule="evenodd" clip-rule="evenodd" d="M43.6296 111.368C44.6875 110.728 45.7252 109.963 46.7333 109.077C46.818 109.014 46.8848 108.963 46.9326 108.926C46.9565 108.907 46.9757 108.892 46.9901 108.881L47.0079 108.867L47.0141 108.862L47.0175 108.859C47.0175 108.859 47.0184 108.858 45.7693 107.303L47.0184 108.858C47.8775 108.169 48.0148 106.913 47.3249 106.054C46.6359 105.195 45.3822 105.058 44.5231 105.745C43.8425 105.951 43.1082 106.129 42.3342 106.276L43.6296 111.368ZM41.6749 106.393C40.317 106.617 38.8549 106.756 37.3582 106.81L37.9457 113.588C39.6618 113.267 41.368 112.643 43.0292 111.717L41.6749 106.393ZM32.2233 106.67C33.6908 106.804 35.2019 106.857 36.6895 106.828L37.2848 113.696C35.5245 113.945 33.7585 113.874 32.0249 113.48L32.2233 106.67ZM31.5572 106.603C30.3394 106.47 29.1595 106.28 28.0571 106.035L26.9967 111.352C28.4077 112.249 29.8708 112.902 31.3616 113.313L31.5572 106.603ZM26.1247 105.52C26.5356 105.65 26.9639 105.77 27.4068 105.881L26.3953 110.953C25.4348 110.288 24.5007 109.508 23.6009 108.611C23.5765 108.591 23.5521 108.57 23.5279 108.55L23.5219 108.545L23.5195 108.543L23.5185 108.542C23.518 108.541 24.1209 107.843 24.3747 107.549L24.3749 107.548C24.4424 107.47 24.4851 107.421 24.4851 107.421L23.5176 108.541C22.6837 107.821 22.5914 106.561 23.3116 105.727C24.0315 104.893 25.2901 104.801 26.1247 105.52Z" fill="white"/>
<path d="M64.4806 78.7377L57.5915 85.3135L69.0151 83.8271" stroke="#335214" stroke-width="2.29497" stroke-linecap="round" stroke-linejoin="round"/>
<path d="M122.87 159.77C120.911 165.525 101.912 178.524 85.8008 173.04C69.6894 167.557 60.1639 152.724 64.5251 139.911C68.8862 127.098 85.4825 121.157 101.594 126.64C117.705 132.124 127.231 146.957 122.87 159.77Z" fill="#FF9500"/>
<path d="M56.368 144.711C56.368 164.041 72.0373 179.71 91.3664 179.71C105.024 179.71 116.855 171.886 122.621 160.476C115.172 169.305 77.6508 167.571 65.1965 155.116C90.0421 152.216 119.901 141.086 123.507 130.838C118.136 118.41 105.767 109.713 91.3664 109.713C72.0373 109.713 56.368 125.382 56.368 144.711Z" fill="#FFCC00"/>
<ellipse cx="111.661" cy="122.805" rx="4.01833" ry="4.79607" transform="rotate(-42.6451 111.661 122.805)" fill="white"/>
<path d="M70.8152 135.33L79.9027 137.95L70.8152 143.397" stroke="#804A00" stroke-width="2.29497" stroke-linecap="round" stroke-linejoin="round"/>
<path d="M112.377 125.361C113.1 125.033 113.339 124.001 112.91 123.056C112.803 122.821 112.666 122.613 112.508 122.439L111.94 123.078L112.041 122.055C111.647 121.823 111.207 121.765 110.825 121.938C110.102 122.266 109.863 123.298 110.292 124.243C110.72 125.188 111.654 125.689 112.377 125.361Z" fill="black"/>
</svg>
