<svg width="479" height="222" viewBox="0 0 479 222" fill="none" xmlns="http://www.w3.org/2000/svg">
<mask id="mask0_1948_24076" style="mask-type:alpha" maskUnits="userSpaceOnUse" x="381" y="111" width="90" height="90">
<ellipse cx="426.256" cy="156.258" rx="44.5653" ry="44.7106" fill="#79BB38"/>
</mask>
<g mask="url(#mask0_1948_24076)">
<ellipse cx="5.33862" cy="5.34281" rx="5.33862" ry="5.34281" transform="matrix(0.551921 -0.833897 0.83491 0.550387 382.452 178.537)" fill="#68A42D"/>
</g>
<ellipse cx="426.256" cy="156.258" rx="44.5653" ry="44.7106" fill="#FFD599"/>
<circle cx="7.04688" cy="7.04688" r="7.04688" transform="matrix(-1 -2.93204e-09 -2.93204e-09 1 453.454 147.944)" fill="white"/>
<ellipse cx="444.924" cy="156.75" rx="3.78364" ry="3.7919" transform="rotate(11.3009 444.924 156.75)" fill="black"/>
<circle cx="7.55023" cy="7.55023" r="7.55023" transform="matrix(-1 -2.93204e-09 -2.93204e-09 1 431.533 141.327)" fill="white"/>
<ellipse cx="422.394" cy="150.761" rx="4.0539" ry="4.06275" transform="rotate(11.3009 422.394 150.761)" fill="black"/>
<path d="M404.206 195.033C411.424 190.18 404.369 183.405 399.939 180.625C397.601 183.648 388.615 186.554 382.484 184.52C374.821 181.977 372.902 173.249 365.35 178.036C357.797 182.824 364.759 186.274 373.197 192.797C381.635 199.32 395.184 201.1 404.206 195.033Z" fill="#FFD599"/>
<path d="M365.35 178.036C357.797 182.824 364.759 186.274 373.197 192.797C374.833 190.681 381.358 192.827 383.228 190.408C384.724 188.473 383.355 185.677 382.484 184.52C374.821 181.977 372.902 173.249 365.35 178.036Z" fill="#FF9500"/>
<path d="M421.4 199.851C425.761 204.068 411.179 204.846 407.234 203.271C393.382 197.59 410.026 179.378 410.026 179.378C412.301 178.344 415.825 179.553 416.85 182.894C418.205 187.307 415.196 193.854 421.4 199.851Z" fill="#FF9500"/>
<path d="M431.604 199.851C427.242 204.068 441.825 204.846 445.769 203.271C459.621 197.59 442.978 179.378 442.978 179.378C440.703 178.344 437.179 179.553 436.153 182.894C434.799 187.307 437.808 193.854 431.604 199.851Z" fill="#FF9500"/>
<circle cx="3.10203" cy="3.10203" r="3.10203" transform="matrix(-0.998438 -0.0558703 -0.0558703 0.998438 438.18 155.289)" fill="#FF9500"/>
<circle cx="6.41086" cy="6.41086" r="6.41086" transform="matrix(-0.998438 -0.0558703 -0.0558703 0.998438 445.428 159.008)" fill="#FFEB99"/>
<circle cx="7.44487" cy="7.44487" r="7.44487" transform="matrix(-0.998438 -0.0558703 -0.0558703 0.998438 434.876 155.104)" fill="#FFEB99"/>
<path d="M425.996 100.693C427.789 103.513 429.568 108.896 429.07 114.535C428.844 117.099 428.302 117.611 425.227 117.611C412.928 117.611 404.985 121.457 401.91 122.995C398.835 124.533 399.86 122.226 400.373 119.919C401.341 115.561 407.547 103 421.383 99.1548C423.592 98.5411 425.073 99.242 425.996 100.693Z" fill="#FFD599"/>
<path d="M423.74 103.161C424.877 104.965 426.004 108.41 425.689 112.019C425.546 113.66 425.552 113.518 423.74 114.236C417.471 116.717 411.68 117.432 408.475 117.432C406.292 117.432 407.176 116.94 407.501 115.464C408.114 112.675 412.048 104.637 420.817 102.177C422.217 101.784 423.155 102.232 423.74 103.161Z" fill="#FF9500"/>
<path d="M447.888 105.74C445.534 107.525 442.404 111.437 441.081 116.263C440.479 118.457 440.771 119.048 443.318 119.995C453.509 123.779 458.907 129.41 460.981 131.63C463.055 133.851 462.916 131.624 463.201 129.555C463.74 125.646 462.463 113.329 452.182 105.885C450.542 104.697 449.099 104.822 447.888 105.74Z" fill="#FFD599"/>
<path d="M448.997 108.479C447.5 109.625 445.506 112.132 444.656 115.219C444.27 116.622 444.308 116.503 445.589 117.655C450.02 121.641 454.597 124.015 457.253 125.002C459.062 125.674 458.481 124.994 458.666 123.671C459.016 121.171 458.23 113.301 451.722 108.563C450.683 107.807 449.767 107.89 448.997 108.479Z" fill="#FF9500"/>
<mask id="mask1_1948_24076" style="mask-type:alpha" maskUnits="userSpaceOnUse" x="381" y="111" width="90" height="90">
<ellipse cx="426.256" cy="156.258" rx="44.5653" ry="44.7106" fill="#FFD599"/>
</mask>
<g mask="url(#mask1_1948_24076)">
<path d="M407.843 160.56C395.183 167.254 392.13 178.129 389.802 184.176C382.379 179.853 374.978 154.68 383.192 147.372C391.406 140.064 400.102 139.249 407.843 139.924C391.246 148.75 386.149 165.031 386.032 166.371C390.474 161.883 398.031 160.56 407.843 160.56Z" fill="#FF9500"/>
<path d="M458.871 165.623C465.339 170.872 465.853 177.422 466.499 181.135C471.222 179.506 478.288 165.978 474.426 160.881C470.564 155.784 465.694 154.336 461.2 153.848C469.674 160.758 470.745 170.623 470.66 171.401C468.632 168.339 464.469 166.73 458.871 165.623Z" fill="#FF9500"/>
</g>
<ellipse cx="120.458" cy="162.332" rx="20.9184" ry="20.9641" transform="rotate(11.3009 120.458 162.332)" fill="#FA90A4"/>
<ellipse cx="84.8159" cy="169.105" rx="28.2399" ry="28.3015" transform="rotate(11.3009 84.8159 169.105)" fill="#FA90A4"/>
<ellipse cx="29.7167" cy="112.13" rx="13.9456" ry="13.9761" transform="rotate(11.3009 29.7167 112.13)" fill="#FFBDCA"/>
<circle cx="7.94492" cy="7.94492" r="7.94492" transform="matrix(-1 -2.93204e-09 -2.93204e-09 1 37.3137 103.357)" fill="white"/>
<ellipse cx="28.6654" cy="110.17" rx="3.03555" ry="2.86323" transform="rotate(11.3009 28.6654 110.17)" fill="black"/>
<ellipse cx="48.1705" cy="146.104" rx="40.7909" ry="40.88" transform="rotate(11.3009 48.1705 146.104)" fill="#FFBDCA"/>
<path d="M70.0278 147.486C66.6773 150.844 57.4902 156.258 47.5458 151.049" stroke="#821729" stroke-width="3.3448" stroke-linecap="round"/>
<ellipse cx="78.2646" cy="118.269" rx="13.9456" ry="13.9761" transform="rotate(11.3009 78.2646 118.269)" fill="#FFBDCA"/>
<circle cx="7.94492" cy="7.94492" r="7.94492" transform="matrix(-1 -2.93204e-09 -2.93204e-09 1 86.4965 109.789)" fill="white"/>
<ellipse cx="79.924" cy="117.493" rx="3.48636" ry="3.49397" transform="rotate(11.3009 79.924 117.493)" fill="black"/>
<path d="M212.183 12.4746C219.025 15.1838 213.161 32.2387 210.788 38.825C203.974 36.7991 189.435 31.2323 185.796 25.1729C181.247 17.5987 179.274 3.71955 186.181 2.63301C193.089 1.54647 194.531 9.83435 196.61 10.511C198.69 11.1877 197.299 1.71913 201.749 3.90502C205.913 5.94992 202.466 13.4856 205.631 14.9263C206.714 15.419 209.61 11.4556 212.183 12.4746Z" fill="#51422F"/>
<circle cx="13.83" cy="13.83" r="13.83" transform="matrix(-0.999975 0.00713205 0.00713205 0.999975 184.586 21.3154)" fill="#A2845E"/>
<circle cx="8.68569" cy="8.68569" r="8.68569" transform="matrix(-1 0 0 1 179.222 25.9478)" fill="white"/>
<ellipse cx="3.01038" cy="2.8333" rx="3.01038" ry="2.8333" transform="matrix(-0.999975 0.00713205 0.00713205 0.999975 172.43 30.7007)" fill="black"/>
<circle cx="40.4527" cy="40.4527" r="40.4527" transform="matrix(-0.999975 0.00713205 0.00713205 0.999975 235.775 23.7163)" fill="#A2845E"/>
<circle cx="13.83" cy="13.83" r="13.83" transform="matrix(-0.999975 0.00713205 0.00713205 0.999975 232.965 17.5122)" fill="#A2845E"/>
<circle cx="8.68569" cy="8.68569" r="8.68569" transform="matrix(-1 0 0 1 228.028 23.0527)" fill="white"/>
<circle cx="3.45745" cy="3.45745" r="3.45745" transform="matrix(-0.999975 0.00713205 0.00713205 0.999975 222.468 28.1147)" fill="black"/>
<ellipse cx="1.87118" cy="2.30633" rx="1.87118" ry="2.30633" transform="matrix(-0.965142 0.261728 0.261728 0.965142 202.016 47.6313)" fill="#51422F"/>
<ellipse cx="1.87119" cy="2.30633" rx="1.87119" ry="2.30633" transform="matrix(-0.978157 -0.207868 -0.207868 0.978157 190.933 49.0957)" fill="#51422F"/>
<path d="M241.08 44.9121C240.377 51.118 233.634 52.9278 229.678 55.0394C229.834 56.2639 230.452 58.4164 231.679 57.2311C233.212 55.7495 235.116 54.8952 238.211 55.5668C241.306 56.2385 241.574 59.9621 242.436 60.2427C243.298 60.5234 244.693 57.1383 249.558 58.7948C254.104 60.3427 253.242 65.9528 254.134 66.0948C255.025 66.2369 255.804 61.6186 261.4 62.6817C266.996 63.7448 267.165 70.0901 267.949 70.2082C269.348 70.4188 269.631 48.8836 255.621 41.0625C247.89 36.7465 242.253 34.5668 241.08 44.9121Z" fill="#A2845E"/>
<path d="M154.144 48.366C154.788 54.6188 160.216 56.3579 163.413 58.4375C163.304 59.675 162.837 61.8549 161.838 60.6748C160.59 59.1997 159.053 58.3622 156.581 59.0799C154.109 59.7975 153.943 63.5583 153.255 63.8526C152.568 64.1468 151.406 60.7492 147.528 62.4835C143.905 64.1041 144.668 69.7537 143.956 69.9085C143.243 70.0634 142.559 65.4135 138.088 66.5584C133.616 67.7034 133.563 74.1081 132.936 74.2374C131.818 74.468 131.313 52.7421 142.44 44.6695C148.581 40.2147 153.071 37.9425 154.144 48.366Z" fill="#A2845E"/>
<path d="M231.986 98.9539C227.997 96.5629 226.55 91.0795 224.591 88.1073L214.691 93.6511C216.011 95.8684 218.825 99.7045 221.972 99.924C224.368 100.091 226.984 99.9128 227.06 100.855C227.124 101.651 217.199 110.302 215.447 115.489C213.789 120.4 215.493 121.944 216.424 121.937C218.444 121.923 219.746 113.225 221.322 113.693C222.157 113.94 221.179 119.875 223.586 119.777C224.568 119.738 224.098 113.262 226.213 113.247C227.079 113.241 227.117 115.4 227.341 116.46C227.565 117.52 229.085 118.333 229.075 116.878C229.053 113.801 228.162 110.007 232.025 104.399C234.461 100.862 233.653 99.9533 231.986 98.9539Z" fill="#A2845E"/>
<path d="M183.501 101.945C181.022 100.031 180.117 95.6499 178.897 93.2739L173.088 91.5865C173.91 93.3588 172.714 102.022 177.286 102.707C178.764 102.928 180.397 102.704 180.446 103.457C180.486 104.093 174.337 110.988 173.256 115.129C172.232 119.048 173.293 120.283 173.87 120.279C175.124 120.27 175.921 113.326 176.9 113.701C177.419 113.9 176.819 118.638 178.313 118.563C178.923 118.533 178.623 113.361 179.936 113.352C180.473 113.348 180.5 115.072 180.64 115.919C180.78 116.766 181.725 117.417 181.717 116.255C181.699 113.798 181.141 110.767 183.532 106.293C185.04 103.472 184.537 102.745 183.501 101.945Z" fill="#A2845E"/>
<path d="M212.763 68.1372C212.294 70.4327 213.143 72.4809 213.828 74.135C214.459 75.6594 214.952 76.8492 214.148 77.5896C212.808 78.8239 208.183 74.2232 206.833 70.9975L212.763 68.1372Z" fill="white"/>
<path d="M202.751 96.7665C202.413 90.7061 205.764 88.0595 207.894 85.7614C212.468 82.8721 213.797 82.9487 213.559 86.6426C213.403 86.8704 212.989 87.7633 212.584 89.5127C212.076 91.6993 213.624 93.7857 213.111 94.1388C211.563 94.9394 211.298 91.5916 210.636 91.6641C209.045 91.838 210.514 96.7362 209.687 97.0063C207.965 97.5691 207.879 92.8845 207.114 92.9109C206.211 93.1199 205.623 95.3006 205.682 97.1247C206.132 101.309 202.874 98.9566 202.751 96.7665Z" fill="#51422F"/>
<path d="M188.438 96.8686C188.69 90.804 185.302 88.2055 183.14 85.9381C178.006 82.6176 176.718 82.816 177.487 86.9C177.647 87.1255 178.073 88.0125 178.504 89.7558C179.042 91.935 177.525 94.0432 178.042 94.389C179.601 95.1675 179.819 91.8162 180.482 91.8792C182.075 92.0304 180.677 96.9491 181.507 97.2074C183.237 97.7455 183.256 93.0602 184.021 93.0757C184.927 93.2718 185.546 95.4438 185.513 97.2687C185.123 101.459 188.347 99.0603 188.438 96.8686Z" fill="#51422F"/>
<path d="M190.478 71.754C192.564 73.4679 199.507 74.0923 204.658 72.3444C209.809 70.5965 211.889 68.1437 211.889 68.1437M211.889 68.1437C210.778 67.5984 210.494 66.5401 210.491 66.0791M211.889 68.1437C213.277 68.8253 214.655 68.124 214.655 68.124" stroke="#51422F" stroke-width="3.66141" stroke-linecap="round" stroke-linejoin="round"/>
<path d="M344.805 193.096C345.568 191.314 345.31 185.103 344.984 180.874C344.905 179.848 345.841 179.028 346.844 179.26L348.532 179.649C349.215 179.807 349.699 180.411 349.712 181.112C349.79 185.183 350.233 194.383 351.582 195.732C353.088 197.238 354.594 201.756 351.582 199.874C348.57 197.991 342.546 202.509 342.169 199.874C341.793 197.238 343.675 195.732 344.805 193.096Z" fill="#FF9500"/>
<path d="M366.449 193.096C365.686 191.314 365.944 185.103 366.27 180.874C366.349 179.848 365.413 179.028 364.41 179.26L362.722 179.649C362.039 179.807 361.558 180.412 361.581 181.113C361.706 184.907 362.149 192.712 359.672 195.732C356.893 199.121 356.467 201.78 359.672 200.25C362.828 198.744 368.852 202.133 369.229 199.497C369.605 196.861 367.579 195.732 366.449 193.096Z" fill="#FF9500"/>
<circle cx="357.18" cy="138.88" r="45.181" fill="black"/>
<ellipse cx="361.322" cy="142.645" rx="30.4972" ry="30.1207" fill="#DBE2E6"/>
<circle cx="341.367" cy="132.102" r="3.01203" fill="black"/>
<circle cx="381.277" cy="132.102" r="3.01203" fill="black"/>
<path d="M343.84 86.4142C330.345 89.8909 322.65 106.098 320.489 113.768C342.271 111.545 384.98 106.015 381.561 101.674C377.287 96.249 360.71 82.0683 343.84 86.4142Z" fill="#801D18"/>
<path d="M379.697 96.2984C365.931 105.253 332.381 109.162 320.015 109.936C314.68 110.27 311.959 110.615 310.575 120.474C309.477 128.294 316.929 131.934 357.66 122.305C398.39 112.676 393.855 106.828 391.003 101.36C388.151 95.8925 382.247 94.6296 379.697 96.2984Z" fill="#FF3B30"/>
<path d="M340.653 141.892L344.795 145.656" stroke="#FFBDCA" stroke-width="3.66141" stroke-linecap="round"/>
<path d="M374.824 141.139L378.966 144.903" stroke="#FFBDCA" stroke-width="3.66141" stroke-linecap="round"/>
<path d="M347.898 141.892L352.039 145.656" stroke="#FFBDCA" stroke-width="3.66141" stroke-linecap="round"/>
<path d="M382.679 141.139L386.821 144.903" stroke="#FFBDCA" stroke-width="3.66141" stroke-linecap="round"/>
<path d="M317.913 149.058C311.679 161.668 329.274 170.431 338.85 173.236C351.763 177.215 351.361 168.282 346.032 156.634C340.921 145.463 325.706 133.296 317.913 149.058Z" fill="#4C5052"/>
<path d="M395.793 140.311C386.098 134.681 377.519 152.258 374.442 161.751C370.134 174.557 377.407 173.824 387.293 168.157C396.775 162.723 407.912 147.349 395.793 140.311Z" fill="#4C5052"/>
<path d="M363.717 139.832C360.812 139.237 358.666 143.514 358.319 145.801C357.559 149.338 357.555 156.467 360.22 157.004C364.34 157.832 373.129 153.519 373.58 150.835C373.916 148.831 367.349 140.575 363.717 139.832Z" fill="#804A00"/>
<path d="M363.717 139.832C360.812 139.237 358.666 143.514 358.319 145.801C358.387 146.838 359.511 149.224 363.47 150.469C367.429 151.714 371.859 151.232 373.58 150.835C373.916 148.831 367.349 140.575 363.717 139.832Z" fill="#FF9500"/>
<path d="M323.515 59.6478C330.434 58.3826 343.983 60.6871 352.441 63.1498C354.272 63.1737 358.067 65.3241 352.933 70.8594C347.799 76.3947 338.735 77.677 342.17 78.5837C345.604 79.4905 341.778 85.3997 335.157 87.7576C328.536 90.1155 317.889 90.5488 312.99 82.1352C308.092 73.7216 311.694 61.8098 323.515 59.6478Z" fill="#003D80"/>
<path d="M279.089 109.519L285.802 101.571L289.29 102.815L279.5 114.407C277.822 116.394 284.391 124.784 284.596 127.228C284.802 129.672 282.893 129.674 281.696 128.14C280.628 126.773 280.499 122.629 279.277 122.732C278.055 122.835 279.335 126.042 279.2 128.491C279.104 130.242 277.656 131.251 276.001 129.852C274.345 128.453 274.899 121.87 273.598 117.364C272.296 112.859 267.56 109.4 269.481 107.592C270.562 106.575 274.134 109.874 274.986 111.019C276.577 113.157 277.791 110.885 279.089 109.519Z" fill="#804A00"/>
<path d="M291.207 114.653L295.426 106.299L299.576 108.104C297.576 111.143 293.449 117.91 292.942 120.66C292.309 124.097 299.078 130.039 299.695 131.475C300.46 133.257 298.068 134.073 296.972 132.012C295.734 129.683 293.125 126.49 292.234 126.873C291.344 127.255 293.33 128.934 293.587 131.989C293.844 135.044 290.687 134.079 289.871 131.686C289.277 129.945 287.879 122.624 286.783 120.563C285.687 118.501 282.811 117.205 282.48 116.925C282.148 116.645 280.772 115.871 281.663 114.533C282.236 113.673 283.422 114.144 284.062 114.545C284.927 115.087 286.73 116.212 287.44 116.576C289.143 117.449 290.231 116.739 291.207 114.653Z" fill="#804A00"/>
<ellipse cx="40.6942" cy="40.708" rx="40.6942" ry="40.708" transform="matrix(-0.999993 -0.00377308 -0.00377308 0.999993 338.347 28.8652)" fill="#007AFF"/>
<path d="M288.261 74.2711C288.885 60.0169 268.416 62.1411 257.411 65.1407C256.958 65.2644 256.631 65.6523 256.582 66.1201C255.08 80.4528 261.231 93.8879 271.793 102.269C272.19 102.584 272.742 102.601 273.148 102.299C278.334 98.4314 287.651 88.214 288.261 74.2711Z" fill="#FFCC00"/>
<path d="M278.378 25.5045C283.269 27.4556 290.949 29.1555 293.702 28.9634L275.426 35.4539C272.002 34.0843 270.829 30.9796 273.984 31.4774C277.14 31.9752 276.993 31.9117 273.994 28.8891C272.3 27.1821 270.68 22.4335 278.378 25.5045Z" fill="#007AFF"/>
<path d="M306.931 65.8332C302.704 64.9684 299.583 71.1907 299.078 74.5181C297.972 79.6642 297.966 90.0353 301.844 90.8156C307.837 92.0216 320.623 85.7469 321.28 81.8416C321.77 78.926 312.215 66.9142 306.931 65.8332Z" fill="#A2845E"/>
<path d="M306.931 65.8332C302.704 64.9684 299.583 71.1907 299.078 74.5181C299.176 76.0267 300.812 79.4969 306.572 81.3087C312.331 83.1205 318.777 82.4189 321.28 81.8416C321.77 78.926 312.215 66.9142 306.931 65.8332Z" fill="#FFCC00"/>
<circle cx="6.61767" cy="6.61767" r="6.61767" transform="matrix(-1 -2.80188e-09 -2.80188e-09 1 323.059 50.7939)" fill="white"/>
<circle cx="7.23807" cy="7.23807" r="7.23807" transform="matrix(-1 -2.80188e-09 -2.80188e-09 1 299.897 49.5532)" fill="white"/>
<ellipse cx="3.40092" cy="3.40206" rx="3.40092" ry="3.40206" transform="matrix(-0.998134 0.0610686 0.0610249 0.998136 320.034 53.6875)" fill="black"/>
<ellipse cx="3.71975" cy="3.72101" rx="3.71975" ry="3.72101" transform="matrix(-0.998134 0.0610686 0.0610249 0.998136 296.589 52.7178)" fill="black"/>
<path d="M265.764 67.9969C258.846 66.7317 245.296 69.0362 236.838 71.4989C235.008 71.5228 231.212 73.6732 236.346 79.2085C241.48 84.7439 250.544 86.0261 247.109 86.9329C243.675 87.8396 247.501 93.7489 254.122 96.1067C260.743 98.4646 271.391 98.898 276.289 90.4844C281.187 82.0708 277.585 70.1589 265.764 67.9969Z" fill="#007AFF"/>
<circle cx="130.207" cy="103.555" r="16.3368" transform="rotate(3.36692 130.207 103.555)" fill="#5A8E26"/>
<path d="M137.708 182.018L123.285 184.931C122.598 185.069 122.635 186.063 123.33 186.149C124.732 186.322 125.749 187.579 125.641 188.988C125.588 189.667 126.177 190.228 126.852 190.133L127.296 190.07C128.876 189.848 130.409 190.699 131.055 192.156L131.15 192.37C131.497 193.153 132.495 193.388 133.156 192.843L140.124 187.096C141.65 185.837 141.499 183.457 139.826 182.405C139.196 182.009 138.438 181.871 137.708 182.018Z" fill="#6CA732"/>
<mask id="mask2_1948_24076" style="mask-type:alpha" maskUnits="userSpaceOnUse" x="109" y="92" width="96" height="96">
<circle cx="157.116" cy="139.913" r="47.7851" transform="rotate(3.36692 157.116 139.913)" fill="#79BB38"/>
</mask>
<g mask="url(#mask2_1948_24076)">
<ellipse cx="5.7114" cy="5.72319" rx="5.7114" ry="5.72319" transform="matrix(0.601142 -0.799142 0.802038 0.597273 108.83 160.924)" fill="#68A42D"/>
</g>
<path d="M139.178 105.45L122.638 97.4374" stroke="#335214" stroke-width="3.66141" stroke-linecap="round" stroke-linejoin="round"/>
<path d="M193.138 183.106L185.039 169.502L170.441 175.787C176.937 180.533 184.772 183.096 192.811 183.106L193.138 183.106Z" fill="#6CA732"/>
<path d="M152.152 184.601L137.11 193.619C136.394 194.048 136.835 195.151 137.651 194.97C139.298 194.606 140.947 195.616 141.392 197.243C141.606 198.028 142.493 198.424 143.214 198.048L143.688 197.801C145.374 196.923 147.441 197.27 148.752 198.65L148.945 198.854C149.65 199.596 150.867 199.462 151.39 198.586L156.912 189.348C158.121 187.326 156.993 184.71 154.69 184.193C153.822 183.998 152.913 184.144 152.152 184.601Z" fill="#6CA732"/>
<path d="M185.789 180.944L164.895 194.924C163.9 195.59 164.607 197.136 165.762 196.82C168.091 196.181 170.52 197.508 171.268 199.804C171.629 200.912 172.925 201.414 173.93 200.825L174.592 200.438C176.943 199.06 179.923 199.408 181.895 201.29L182.185 201.567C183.244 202.578 184.975 202.3 185.664 201.009L192.923 187.399C194.513 184.418 192.719 180.753 189.388 180.179C188.134 179.963 186.846 180.237 185.789 180.944Z" fill="#6CA732"/>
<circle cx="157.116" cy="139.913" r="47.7851" transform="rotate(3.36692 157.116 139.913)" fill="#79BB38"/>
<circle cx="187.527" cy="102.835" r="16.3368" transform="rotate(3.36692 187.527 102.835)" fill="#79BB38"/>
<ellipse cx="10.4618" cy="10.4834" rx="10.4618" ry="10.4834" transform="matrix(0.601142 -0.799142 0.802038 0.597273 174.846 151.462)" fill="#68A42D"/>
<ellipse cx="5.7114" cy="5.72319" rx="5.7114" ry="5.72319" transform="matrix(0.601142 -0.799142 0.802038 0.597273 168.237 166.469)" fill="#68A42D"/>
<ellipse cx="4.06853" cy="4.07693" rx="4.06853" ry="4.07693" transform="matrix(0.601142 -0.799142 0.802038 0.597273 183.311 167.844)" fill="#68A42D"/>
<ellipse cx="4.06853" cy="4.07693" rx="4.06853" ry="4.07693" transform="matrix(0.601142 -0.799142 0.802038 0.597273 132.927 126.869)" fill="#68A42D"/>
<ellipse cx="4.06853" cy="4.07693" rx="4.06853" ry="4.07693" transform="matrix(0.601142 -0.799142 0.802038 0.597273 146.021 126.821)" fill="#68A42D"/>
<path fill-rule="evenodd" clip-rule="evenodd" d="M156.952 147.199C158.64 146.178 160.295 144.959 161.903 143.544C162.039 143.443 162.145 143.362 162.221 143.303C162.26 143.274 162.29 143.25 162.313 143.232L162.342 143.209L162.351 143.201L162.357 143.197C162.357 143.197 162.358 143.196 160.373 140.723L162.358 143.196C163.729 142.095 163.948 140.092 162.847 138.721C161.748 137.352 159.748 137.132 158.377 138.228C157.291 138.558 156.12 138.84 154.885 139.076L156.952 147.199ZM153.833 139.263C151.667 139.62 149.334 139.841 146.946 139.927L147.884 150.741C150.621 150.23 153.344 149.233 155.994 147.756L153.833 139.263ZM138.754 139.704C141.096 139.917 143.506 140.003 145.879 139.957L146.829 150.914C144.021 151.311 141.204 151.197 138.438 150.569L138.754 139.704ZM137.692 139.597C135.749 139.385 133.866 139.082 132.107 138.691L130.416 147.174C132.667 148.604 135.001 149.646 137.38 150.303L137.692 139.597ZM129.024 137.87C129.68 138.077 130.363 138.269 131.07 138.446L129.456 146.537C127.924 145.477 126.433 144.232 124.998 142.801C124.959 142.769 124.92 142.736 124.881 142.703L124.872 142.695L124.868 142.692L124.866 142.69C124.866 142.69 125.828 141.574 126.233 141.105L126.233 141.105L126.236 141.101L126.238 141.099C126.342 140.978 126.408 140.902 126.408 140.902L124.865 142.689C123.534 141.54 123.387 139.53 124.536 138.2C125.685 136.87 127.693 136.722 129.024 137.87Z" fill="white"/>
<path d="M190.218 95.1408L179.227 105.632L197.452 103.26" stroke="#335214" stroke-width="3.66141" stroke-linecap="round" stroke-linejoin="round"/>
<path d="M315.392 171.679C311.545 182.981 274.233 208.511 242.591 197.741C210.95 186.971 192.243 157.841 200.808 132.678C209.372 107.514 241.966 95.8454 273.608 106.615C305.249 117.385 323.956 146.515 315.392 171.679Z" fill="#FF9500"/>
<path d="M184.788 142.105C184.788 180.066 215.561 210.839 253.522 210.839C280.345 210.839 303.579 195.475 314.904 173.067C300.273 190.405 226.585 186.999 202.126 162.54C250.921 156.843 309.561 134.984 316.644 114.86C306.094 90.4519 281.803 73.3716 253.522 73.3716C215.561 73.3716 184.788 104.145 184.788 142.105Z" fill="#FFCC00"/>
<ellipse cx="293.379" cy="99.0831" rx="7.89165" ry="9.41907" transform="rotate(-42.6451 293.379 99.0831)" fill="white"/>
<path d="M213.161 123.681L231.008 128.826L213.161 139.523" stroke="#804A00" stroke-width="4.50713" stroke-linecap="round" stroke-linejoin="round"/>
<path d="M294.785 104.102C296.205 103.458 296.673 101.431 295.832 99.5753C295.622 99.1137 295.352 98.7061 295.041 98.3641L293.928 99.6182L294.125 97.6103C293.352 97.154 292.487 97.0403 291.737 97.3804C290.316 98.0244 289.848 100.051 290.689 101.907C291.531 103.763 293.364 104.746 294.785 104.102Z" fill="#804A00"/>
</svg>
