<svg width="175" height="43" viewBox="0 0 175 43" fill="none" xmlns="http://www.w3.org/2000/svg">
<rect y="3" width="40" height="40" rx="10" fill="#806600"/>
<rect x="1" y="1" width="38" height="38" rx="9" fill="#FFEB99" stroke="#806600" stroke-width="2"/>
<path d="M19.4344 26.24C18.5171 26.24 17.7598 26.0053 17.1624 25.536C16.5704 25.0667 16.1491 24.432 15.8984 23.632L18.0424 23.12C18.0904 23.4133 18.2451 23.6693 18.5064 23.888C18.7678 24.1013 19.0451 24.208 19.3384 24.208C19.5411 24.208 19.7571 24.152 19.9864 24.04C20.2211 23.928 20.3891 23.7493 20.4904 23.504C20.5544 23.3493 20.5918 23.16 20.6024 22.936C20.6131 22.712 20.6184 22.4533 20.6184 22.16V14.48H22.8264V22.16C22.8264 22.528 22.8238 22.848 22.8184 23.12C22.8184 23.392 22.7918 23.648 22.7384 23.888C22.6904 24.1227 22.5918 24.368 22.4424 24.624C22.1171 25.1893 21.6931 25.6 21.1704 25.856C20.6478 26.112 20.0691 26.24 19.4344 26.24Z" fill="#806600"/>
<rect x="45" y="3" width="40" height="40" rx="10" fill="#821729"/>
<rect x="46" y="1" width="38" height="38" rx="9" fill="#FFBDCA" stroke="#821729" stroke-width="2"/>
<path d="M60.7997 26V14.48H62.9757V19.792L67.3597 14.48H70.0157L65.1997 20.16L70.3197 26H67.5677L62.9757 20.752V26H60.7997Z" fill="#821729"/>
<rect x="90" y="3" width="40" height="40" rx="10" fill="#804A00"/>
<rect x="91" y="1" width="38" height="38" rx="9" fill="#FFD599" stroke="#804A00" stroke-width="2"/>
<path d="M106.952 26V14.48H109.128V23.968H114.088V26H106.952Z" fill="#804A00"/>
<rect x="135" y="3" width="40" height="40" rx="10" fill="#17713A"/>
<rect x="136" y="1" width="38" height="38" rx="9" fill="#ACF3C7" stroke="#17713A" stroke-width="2"/>
<path d="M153.908 28.16L154.036 27.248C154.292 27.2693 154.5 27.2267 154.66 27.12C154.82 27.0187 154.93 26.8693 154.988 26.672C155.052 26.48 155.066 26.256 155.028 26H153.908V23.824H156.084V26C156.084 26.768 155.906 27.3493 155.548 27.744C155.191 28.1387 154.644 28.2773 153.908 28.16ZM153.908 19.536V17.36H156.084V19.536H153.908Z" fill="#17713A"/>
</svg>
