<svg width="200" height="200" viewBox="0 0 200 200" fill="none" xmlns="http://www.w3.org/2000/svg">
<path d="M86.644 175.951L149.612 123.354C157.185 117.024 155.873 104.999 147.238 100.432L114.074 82.9198L135.182 30.0557C139.102 20.2854 127.079 12.0601 119.539 19.2511L54.0225 81.2699C47.2909 87.6861 48.5693 98.85 56.7119 103.489L91.2375 123.103L71.7023 164.238C67.2063 173.704 78.5409 182.717 86.644 175.951Z" fill="#FFCC00"/>
<path d="M122.562 104.638C122.562 104.638 119.679 99.1134 111.386 96.6808C104.278 94.5957 98.8687 97.6874 98.8687 97.6874" stroke="black" stroke-width="2.22222" stroke-linecap="round"/>
<circle cx="120.27" cy="123.918" r="3" fill="black"/>
<circle cx="94.027" cy="108.767" r="3" fill="black"/>
<path d="M123.5 60.0709C140 55.0709 158.903 48.9494 161.995 47.8782C164.646 46.9597 165.751 46.3731 169.134 49.3769C172.518 52.3807 186.369 65.6097 185.474 67.142C184.579 68.6743 180.762 65.006 177.555 66.6264C174.989 67.9227 131 83.0708 116 89.0708" stroke="black" stroke-width="2.22222" stroke-linecap="round" stroke-linejoin="round"/>
<path d="M95.8113 45.463C85.4617 30.1783 73.7648 16.4033 71.2885 13.5679C69.4428 11.4546 69.11 9.80603 65.0106 11.7204C60.9113 13.6347 43.0222 29.6379 43.4432 31.3619C43.8641 33.0858 49.2523 30.0632 51.8642 32.5308C53.9538 34.5049 64.7469 49.5121 75.1072 63.6394" stroke="black" stroke-width="2.22222" stroke-linecap="round" stroke-linejoin="round"/>
<path d="M65.0521 79C56.0733 83.3023 34.9732 91.907 31.3817 91.907C26.8923 91.907 24.6476 90.7846 22.4029 89.6623C20.1582 88.5399 15.6689 88.5399 22.9641 94.1517C18.0259 91.0091 15.2949 91.3458 14.5467 91.907C14.1726 92.6552 14.9956 94.8251 21.2808 97.5187C15.1076 95.274 13.4241 93.5905 11.1794 95.274C9.38364 96.6208 16.0429 100.699 19.597 102.569C16.604 100.886 9.49551 98.0799 7.25105 100.325C5.00654 102.569 18.4754 109.865 21.2808 111.548C24.0861 113.232 25.2093 114.354 22.9641 117.16C20.7189 119.966 20.7196 123.333 21.8415 123.894C24.0859 125.017 27.453 119.966 31.9424 118.843C36.4318 117.721 62.2458 108.742 66.174 107.059" stroke="black" stroke-width="2.22222" stroke-linecap="round" stroke-linejoin="round"/>
<path d="M109.06 150.5C109.06 161.911 108.948 177.336 108.499 179.132C107.517 183.06 103.822 188.111 101.765 191.478H146.097C143.853 189.607 139.027 185.641 137.68 184.744C135.996 183.621 135.996 183.06 135.996 178.571C135.996 174.979 135.809 139.979 135.996 131" stroke="black" stroke-width="2.22222" stroke-linecap="round" stroke-linejoin="round"/>
</svg>
