<svg width="300" height="300" viewBox="0 0 300 300" fill="none" xmlns="http://www.w3.org/2000/svg">
<g clip-path="url(#clip0_1938_64697)">
<path d="M264 16.5C262.343 16.5 261 17.8431 261 19.5V30.6966C254.76 33.9487 250.5 40.4768 250.5 48C250.5 58.7696 259.23 67.5 270 67.5C280.77 67.5 289.5 58.7696 289.5 48C289.5 40.4768 285.24 33.9487 279 30.6966V19.5C279 17.8431 277.657 16.5 276 16.5H264Z" fill="#00ACFF"/>
<path fill-rule="evenodd" clip-rule="evenodd" d="M270 206.685C270.828 206.685 271.5 207.357 271.5 208.185V230.048C271.5 230.877 270.828 231.548 270 231.548C269.172 231.548 268.5 230.877 268.5 230.048V208.185C268.5 207.357 269.172 206.685 270 206.685Z" fill="#00ACFF"/>
<path d="M187.81 65.644L188.993 127.04C189.115 132.627 192.442 137.57 197.512 139.845L253.545 165.149C265.408 170.53 264.721 187.634 252.392 191.866L194.356 211.8C189.084 213.513 185.455 218.245 184.867 223.75L178.061 284.729C176.703 297.702 160.197 302.212 152.247 291.836L115.07 242.958C111.724 238.56 106.046 236.427 100.631 237.532L40.4658 249.832C27.65 252.404 18.3608 238.201 25.7207 227.483L60.858 177.335C64.0412 172.805 64.2636 166.794 61.5863 162.094L31.1014 108.711C24.611 97.4067 35.3571 84.083 47.8289 87.8461L106.659 105.705C111.973 107.332 117.732 105.802 121.503 101.678L162.826 56.2555C171.403 46.7341 187.464 52.7696 187.81 65.644Z" fill="#FFCC00"/>
<path d="M116.962 157.022C116.962 157.022 120.306 166.084 132.428 170.639C142.819 174.544 151.596 170.037 151.596 170.037" stroke="black" stroke-width="3" stroke-linecap="round"/>
<path d="M71.1979 121.965C56.4243 120.091 25.2911 121.198 18.9464 140.624C12.6017 160.05 27.9307 180.389 36.3882 188.131C31.3112 186.736 20.7388 185.47 19.0651 191.562C16.9729 199.178 26.9291 203.299 31.8293 204.267C35.7495 205.042 40.2461 205.277 42.0044 205.298" stroke="black" stroke-width="3" stroke-linecap="round" stroke-linejoin="round"/>
<path d="M61.5951 172.999L57.3979 166.491M53.2006 159.983L57.3979 166.491M66.6215 163.417L57.3979 166.491" stroke="black" stroke-width="3" stroke-linecap="round" stroke-linejoin="round"/>
<path d="M27.7747 178.204C25.8396 177.757 21.7757 177.842 21.0012 181.762C20.2266 185.682 23.4247 187.006 24.0281 187.255" stroke="black" stroke-width="3" stroke-linecap="round" stroke-linejoin="round"/>
<path d="M199.334 175.581C207.035 179.288 225.049 185.742 235.504 181.902C248.573 177.102 256.127 167.28 262.605 169.526C267.788 171.323 270.268 176.33 270.861 178.609C271.667 180.271 272.289 183.459 268.33 182.916C263.382 182.237 263.74 178.214 260.926 180.349" stroke="black" stroke-width="3" stroke-linecap="round" stroke-linejoin="round"/>
<path d="M270.12 176.279C273.942 176.222 282.14 176.3 283.078 180.772C284.25 186.363 276.753 189.109 272.748 189.632C268.404 190.2 267.479 189.879 263.776 188.595C260.074 187.311 257.619 185.423 258.581 182.646C259.352 180.425 260.778 180.298 261.395 180.512" stroke="black" stroke-width="3" stroke-linecap="round" stroke-linejoin="round"/>
<path d="M283.041 183.87C283.634 186.149 284.633 190.642 282.609 194.088C280.079 198.395 275.093 200.813 268.293 199.492C264.447 198.745 257.792 196.887 257.508 194.716C257.224 192.544 257.261 189.446 261.001 187.632" stroke="black" stroke-width="3" stroke-linecap="round" stroke-linejoin="round"/>
<path d="M259.025 196.761C258.91 199.665 258.165 202.255 260.494 204.045C262.949 205.933 266.33 208.143 272.846 207.292C277.19 206.724 280.79 199.332 282.288 195.013L282.797 193.749" stroke="black" stroke-width="3" stroke-linecap="round" stroke-linejoin="round"/>
<path d="M180.13 214.542C185.992 216.574 202.052 220.691 219.398 220.9C236.616 221.107 255.988 211.369 263.704 206.365" stroke="black" stroke-width="3" stroke-linecap="round" stroke-linejoin="round"/>
<path d="M107.813 141.709L125.138 141.125L112.613 129.14" stroke="black" stroke-width="3" stroke-linecap="round"/>
<path d="M172.947 151.659L155.621 152.243L168.147 164.228" stroke="black" stroke-width="3" stroke-linecap="round"/>
<path fill-rule="evenodd" clip-rule="evenodd" d="M268.5 0L268.5 174.549C268.5 175.377 269.172 176.049 270 176.049C270.828 176.049 271.5 175.377 271.5 174.549L271.5 0H268.5Z" fill="#00ACFF"/>
</g>
<defs>
<clipPath id="clip0_1938_64697">
<rect width="300" height="300" fill="white"/>
</clipPath>
</defs>
</svg>
