<svg width="200" height="200" viewBox="0 0 200 200" fill="none" xmlns="http://www.w3.org/2000/svg">
<path d="M108.995 13.4756L123.64 50.279C124.982 53.6248 128.112 55.8553 131.69 56.0784L171.265 58.6435C179.649 59.2011 183.115 69.6845 176.631 75.0377L146.111 100.243C143.316 102.473 142.198 106.153 143.093 109.611L152.819 147.976C154.943 156.117 145.999 162.585 138.844 158.124L105.306 137.046C102.288 135.15 98.3748 135.15 95.3563 137.046L61.818 158.124C54.6632 162.585 45.8314 156.117 47.8437 147.976L57.6816 109.722C58.576 106.265 57.3463 102.585 54.6632 100.354L24.1433 75.0377C17.6592 69.6845 21.1249 59.2011 29.5094 58.6435L69.0847 56.0784C72.6621 55.8553 75.7923 53.6248 77.1339 50.279L91.7789 13.4756C94.7974 5.78028 105.865 5.78028 108.995 13.4756Z" fill="#FFCC00"/>
<path d="M90.8419 70.3054C90.8419 70.3054 94.2819 73.879 101.161 73.879C107.057 73.879 110.497 70.3054 110.497 70.3054" stroke="black" stroke-width="2" stroke-linecap="round"/>
<path d="M107.816 58.6914C107.816 58.6914 109.536 61.3716 112.976 61.3716C115.924 61.3716 117.644 58.6914 117.644 58.6914" stroke="black" stroke-width="2" stroke-linecap="round"/>
<path d="M83.6946 58.6914C83.6946 58.6914 85.4147 61.3716 88.8542 61.3716C91.8024 61.3716 93.522 58.6914 93.522 58.6914" stroke="black" stroke-width="2" stroke-linecap="round"/>
<path d="M47.957 81.4729C43.6176 86.3547 35.1559 99.4812 36.0238 112.933C37.1086 129.748 52.8387 130.29 61.5174 127.036C70.1961 123.781 77.728 119.442 77.1855 116.188M72.9082 117.272C74.897 116.911 78.8748 115.537 78.8748 112.933M56.0932 103.712C55.9124 104.797 55.0084 107.4 52.8387 109.136C63.1447 104.797 80.502 99.3727 82.6717 103.712C83.5359 105.44 82.1052 106.613 79.9596 107.377M79.9596 107.377C77.796 108.148 74.9054 108.503 72.9082 108.594M79.9596 107.377C79.7924 108.233 80.9201 109.597 79.9596 110.763C77.7899 113.367 74.3546 113.656 72.9082 113.476" stroke="black" stroke-width="2" stroke-linecap="round"/>
<path d="M84.8414 99.3728C84.299 99.3728 82.8887 99.3728 81.5869 99.3728C80.2851 99.3728 80.0097 100.7 80.0097 101.604M79.8241 111.332C79.8242 112.207 79.7427 115.211 81.0445 115.645C82.3463 116.079 84.4866 115.826 85.029 115.645" stroke="black" stroke-width="2" stroke-linecap="round"/>
<path d="M92.4352 79.3032C93.7009 80.0264 95.1473 82.3906 95.1473 84.7274C95.1473 86.8971 92.4352 90.1516 92.4352 90.1516M101.114 84.185C98.0764 88.0904 99.8483 90.8748 101.114 91.7788" stroke="black" stroke-width="2" stroke-linecap="round"/>
<path d="M84.8414 98.4214C84.8414 96.4302 86.202 94.7134 88.1761 94.4526C90.1284 94.1948 92.8724 93.9485 96.2321 93.9485C99.7993 93.9485 102.95 94.2261 105.193 94.5005C107.246 94.7516 108.708 96.5222 108.708 98.5907V118.249C108.708 119.964 107.693 121.513 106.042 121.977C103.928 122.572 100.685 123.239 96.7746 123.239C92.864 123.239 89.6207 122.572 87.5073 121.977C85.8565 121.513 84.8414 119.964 84.8414 118.249V98.4214Z" fill="#00ACFF"/>
<path d="M75.0159 141.139L78.8555 189.364L75.0159 194.296H98.602M122.737 143.331L119.445 189.912L123.834 194.296H98.602M98.602 143.331V194.296" stroke="black" stroke-width="2" stroke-linecap="round" stroke-linejoin="round"/>
</svg>
