<svg width="100" height="100" viewBox="0 0 100 100" fill="none" xmlns="http://www.w3.org/2000/svg">
<g clip-path="url(#clip0_2691_44225)">
<path d="M48.6611 14.1601L55.411 31.1228C56.0293 32.6648 57.472 33.6929 59.1208 33.7957L77.361 34.9779C81.2255 35.2349 82.8228 40.0667 79.8343 42.534L65.7677 54.1509C64.4795 55.1789 63.9643 56.8752 64.3765 58.4687L68.8592 76.151C69.8382 79.9034 65.7161 82.8847 62.4185 80.8286L46.9607 71.1136C45.5695 70.2398 43.7661 70.2398 42.3749 71.1136L26.9171 80.8286C23.6194 82.8847 19.5489 79.9034 20.4763 76.151L25.0106 58.5201C25.4228 56.9266 24.8561 55.2303 23.6194 54.2023L9.55284 42.534C6.56433 40.0667 8.16163 35.2349 12.0261 34.9779L30.2663 33.7957C31.9151 33.6929 33.3578 32.6648 33.9761 31.1228L40.7261 14.1601C42.1173 10.6133 47.2183 10.6133 48.6611 14.1601Z" fill="#FFCC00"/>
<path d="M38.1884 45.6155C38.1884 45.6155 39.352 47.4637 42.3178 48.0786C44.8599 48.6057 46.662 47.3725 46.662 47.3725" stroke="black" stroke-linecap="round"/>
<circle cx="39.4062" cy="40.269" r="1.5" fill="black"/>
<circle cx="49.4874" cy="38.9326" r="1.5" fill="black"/>
<path d="M71.3082 19.5H85.5C84.9087 19.8232 83.726 21.1 83.726 23.6212C83.726 26.1424 84.5708 27.2576 84.9931 27.5H70.8014C68.5205 27.5 67 26.2879 67 23.6212C67 20.9545 69.2808 19.5 71.3082 19.5Z" fill="#00ACFF" stroke="#00ACFF" stroke-linecap="round" stroke-linejoin="round"/>
<path d="M60 39.75C65.75 40.5 71.75 36.0114 71.75 29C71.75 25.25 72.75 22 75 22C77.25 22 75.5 28 76 29L76.75 29.75M82 28C82 31.75 81.15 40.25 77.75 44.25C73.5 49.25 69.25 50.75 62 51.5" stroke="black" stroke-linecap="round"/>
<path d="M89.5 22L91.75 23.5L89.5 24.8846V22Z" fill="black"/>
<path d="M85.25 27.5L89.5 24.8846M85.75 19.5L89.5 22M89.5 22L91.75 23.5L89.5 24.8846M89.5 22V24.8846" stroke="black" stroke-linecap="round" stroke-linejoin="round"/>
<path d="M33.5 72L31.5 90.5L29.25 93H40.625M54 70.75L50.25 90.5L52 93H40.625M40.625 93L44.5 67" stroke="black" stroke-linecap="round" stroke-linejoin="round"/>
<path d="M22.2429 44.6197C17.3535 45.477 7.5477 48.8946 7.43947 55.7055C7.33124 62.5165 14.2153 67.485 17.6708 69.1179C15.9167 69.1735 12.4251 69.8109 12.4918 71.9159C12.5752 74.5472 16.1516 74.8795 17.8075 74.7054C19.1321 74.5662 20.5874 74.1986 21.1494 74.0322" stroke="black" stroke-linecap="round" stroke-linejoin="round"/>
<path d="M24.2087 61.8174L22.2314 60.1579M20.254 58.4985L22.2314 60.1579M24.8662 58.2712L22.2314 60.1579" stroke="black" stroke-linecap="round" stroke-linejoin="round"/>
<path d="M13.9505 66.8045C13.2902 66.8524 12.0043 67.2795 12.1436 68.6042C12.2828 69.9289 13.4316 70.0356 13.6484 70.0557" stroke="black" stroke-linecap="round" stroke-linejoin="round"/>
</g>
<defs>
<clipPath id="clip0_2691_44225">
<rect width="100" height="100" fill="white"/>
</clipPath>
</defs>
</svg>
